<svg xmlns="http://www.w3.org/2000/svg" xmlns:xlink="http://www.w3.org/1999/xlink" width="500" zoomAndPan="magnify" viewBox="0 0 375 374.999991" height="500" preserveAspectRatio="xMidYMid meet" version="1.0"><defs><clipPath id="a692bbd9b4"><path d="M 141.585938 117.398438 L 220 117.398438 L 220 217 L 141.585938 217 Z M 141.585938 117.398438 " clip-rule="nonzero"/></clipPath><clipPath id="39843f5875"><path d="M 155 138 L 233.085938 138 L 233.085938 237.398438 L 155 237.398438 Z M 155 138 " clip-rule="nonzero"/></clipPath></defs><g clip-path="url(#a692bbd9b4)"><path fill="#d9d9d9" d="M 186.863281 183.878906 L 173.433594 168.816406 L 214.015625 123.335938 L 219.359375 117.324219 L 178.632812 117.324219 L 177.550781 118.554688 L 150.398438 148.972656 L 148.230469 151.363281 L 150.398438 153.753906 L 163.828125 168.816406 L 143.828125 191.195312 L 141.660156 193.582031 L 143.828125 195.972656 L 159.351562 213.425781 L 162.023438 216.394531 L 164.695312 213.425781 L 186.792969 188.660156 L 188.957031 186.269531 L 186.792969 183.878906 Z M 203.328125 124.566406 L 168.667969 163.457031 L 157.910156 151.433594 L 181.882812 124.640625 L 203.402344 124.640625 Z M 179.355469 186.269531 L 162.023438 205.675781 L 151.265625 193.65625 L 168.59375 174.246094 Z M 179.355469 186.269531 " fill-opacity="1" fill-rule="evenodd"/></g><g clip-path="url(#39843f5875)"><path fill="#38b6ff" d="M 187.804688 170.914062 L 201.234375 185.980469 L 160.652344 231.460938 L 155.308594 237.46875 L 196.035156 237.46875 L 197.117188 236.238281 L 224.269531 205.824219 L 226.4375 203.433594 L 224.269531 201.042969 L 210.839844 185.980469 L 230.839844 163.601562 L 233.007812 161.210938 L 230.839844 158.820312 L 215.316406 141.367188 L 212.644531 138.398438 L 209.972656 141.367188 L 187.875 166.136719 L 185.710938 168.527344 L 187.875 170.914062 Z M 171.339844 230.226562 L 206 191.339844 L 216.761719 203.359375 L 192.785156 230.15625 L 171.265625 230.15625 Z M 223.332031 161.210938 L 206 180.621094 L 195.242188 168.597656 L 212.570312 149.191406 Z M 223.332031 161.210938 " fill-opacity="1" fill-rule="evenodd"/></g></svg>