<svg xmlns="http://www.w3.org/2000/svg" xmlns:xlink="http://www.w3.org/1999/xlink" width="500" zoomAndPan="magnify" viewBox="0 0 375 374.999991" height="500" preserveAspectRatio="xMidYMid meet" version="1.0"><defs><clipPath id="aca2b26450"><path d="M 91.585938 62.074219 L 255 62.074219 L 255 269 L 91.585938 269 Z M 91.585938 62.074219 " clip-rule="nonzero"/></clipPath><clipPath id="fff41d6a68"><path d="M 120 105 L 283.585938 105 L 283.585938 312.574219 L 120 312.574219 Z M 120 105 " clip-rule="nonzero"/></clipPath></defs><g clip-path="url(#aca2b26450)"><path fill="#d9d9d9" d="M 186.601562 200.855469 L 158.417969 169.410156 L 243.574219 74.46875 L 254.789062 61.921875 L 169.328125 61.921875 L 167.054688 64.492188 L 110.078125 127.988281 L 105.535156 132.976562 L 110.078125 137.964844 L 138.261719 169.410156 L 96.289062 216.121094 L 91.746094 221.113281 L 96.289062 226.101562 L 128.867188 262.535156 L 134.476562 268.734375 L 140.082031 262.535156 L 186.449219 210.832031 L 190.996094 205.84375 L 186.449219 200.855469 Z M 221.148438 77.039062 L 148.414062 158.222656 L 125.839844 133.128906 L 176.144531 77.191406 L 221.300781 77.191406 Z M 170.84375 205.84375 L 134.476562 246.359375 L 111.898438 221.261719 L 148.265625 180.746094 Z M 170.84375 205.84375 " fill-opacity="1" fill-rule="evenodd"/></g><g clip-path="url(#fff41d6a68)"><path fill="#38b6ff" d="M 188.570312 173.792969 L 216.753906 205.238281 L 131.597656 300.175781 L 120.382812 312.726562 L 205.84375 312.726562 L 208.117188 310.15625 L 265.09375 246.660156 L 269.636719 241.671875 L 265.09375 236.683594 L 236.90625 205.238281 L 278.882812 158.523438 L 283.425781 153.535156 L 278.882812 148.546875 L 246.304688 112.113281 L 240.695312 105.914062 L 235.089844 112.113281 L 188.722656 163.816406 L 184.175781 168.804688 L 188.722656 173.792969 Z M 154.023438 297.605469 L 226.753906 216.425781 L 249.332031 241.519531 L 199.027344 297.457031 L 153.871094 297.457031 Z M 263.121094 153.535156 L 226.753906 194.050781 L 204.179688 168.957031 L 240.542969 128.441406 Z M 263.121094 153.535156 " fill-opacity="1" fill-rule="evenodd"/></g></svg>