<svg xmlns="http://www.w3.org/2000/svg" xmlns:xlink="http://www.w3.org/1999/xlink" width="500" zoomAndPan="magnify" viewBox="0 0 375 374.999991" height="500" preserveAspectRatio="xMidYMid meet" version="1.0"><defs><clipPath id="fd4dae5a2f"><path d="M 62.117188 23.535156 L 276 23.535156 L 276 294 L 62.117188 294 Z M 62.117188 23.535156 " clip-rule="nonzero"/></clipPath><clipPath id="2ed49d8dc9"><path d="M 99 80 L 312.617188 80 L 312.617188 351.285156 L 99 351.285156 Z M 99 80 " clip-rule="nonzero"/></clipPath></defs><rect x="-37.5" width="450" fill="#ffffff" y="-37.499999" height="449.999989" fill-opacity="1"/><rect x="-37.5" width="450" fill="#ffffff" y="-37.499999" height="449.999989" fill-opacity="1"/><rect x="-37.5" width="450" fill="#011734" y="-37.499999" height="449.999989" fill-opacity="1"/><g clip-path="url(#fd4dae5a2f)"><path fill="#d9d9d9" d="M 186.082031 205.113281 L 149.308594 163.972656 L 260.414062 39.753906 L 275.046875 23.335938 L 163.542969 23.335938 L 160.578125 26.699219 L 86.242188 109.773438 L 80.3125 116.300781 L 86.242188 122.828125 L 123.015625 163.972656 L 68.25 225.089844 L 62.320312 231.617188 L 68.25 238.144531 L 110.757812 285.816406 L 118.070312 293.925781 L 125.386719 285.816406 L 185.882812 218.167969 L 191.8125 211.640625 L 185.882812 205.113281 Z M 231.15625 43.117188 L 136.261719 149.335938 L 106.804688 116.5 L 172.4375 43.316406 L 231.355469 43.316406 Z M 165.519531 211.640625 L 118.070312 264.652344 L 88.613281 231.816406 L 136.0625 178.804688 Z M 165.519531 211.640625 " fill-opacity="1" fill-rule="evenodd"/></g><g clip-path="url(#2ed49d8dc9)"><path fill="#38b6ff" d="M 188.652344 169.707031 L 225.421875 210.847656 L 114.316406 335.066406 L 99.6875 351.484375 L 211.1875 351.484375 L 214.152344 348.121094 L 288.488281 265.046875 L 294.421875 258.519531 L 288.488281 251.992188 L 251.714844 210.847656 L 306.480469 149.730469 L 312.410156 143.203125 L 306.480469 136.675781 L 263.972656 89.007812 L 256.660156 80.898438 L 249.34375 89.007812 L 188.847656 156.652344 L 182.917969 163.179688 L 188.847656 169.707031 Z M 143.574219 331.703125 L 238.472656 225.488281 L 267.929688 258.320312 L 202.292969 331.507812 L 143.378906 331.507812 Z M 285.917969 143.203125 L 238.472656 196.210938 L 209.011719 163.378906 L 256.460938 110.367188 Z M 285.917969 143.203125 " fill-opacity="1" fill-rule="evenodd"/></g></svg>