<svg xmlns="http://www.w3.org/2000/svg" xmlns:xlink="http://www.w3.org/1999/xlink" width="500" zoomAndPan="magnify" viewBox="0 0 375 374.999991" height="500" preserveAspectRatio="xMidYMid meet" version="1.0"><defs><g/><clipPath id="ff203527a6"><path d="M 125.503906 81.441406 L 249.253906 81.441406 L 249.253906 226.191406 L 125.503906 226.191406 Z M 125.503906 81.441406 " clip-rule="nonzero"/></clipPath></defs><g clip-path="url(#ff203527a6)"><path fill="#4f6fff" d="M 127.191406 118.023438 C 126.667969 118.355469 126.257812 118.789062 125.957031 119.332031 C 125.65625 119.875 125.507812 120.453125 125.503906 121.074219 L 125.503906 188.195312 C 125.503906 188.828125 125.660156 189.417969 125.972656 189.96875 C 126.285156 190.519531 126.714844 190.957031 127.257812 191.28125 L 185.230469 225.648438 C 185.789062 225.972656 186.390625 226.132812 187.035156 226.132812 C 187.679688 226.132812 188.28125 225.972656 188.839844 225.648438 L 247.359375 191.265625 C 247.90625 190.945312 248.335938 190.511719 248.652344 189.960938 C 248.96875 189.40625 249.128906 188.816406 249.128906 188.179688 L 249.242188 121.054688 C 249.238281 120.429688 249.082031 119.84375 248.777344 119.300781 C 248.472656 118.753906 248.058594 118.316406 247.527344 117.988281 L 188.910156 82.007812 C 188.335938 81.648438 187.710938 81.46875 187.035156 81.46875 C 186.359375 81.46875 185.734375 81.648438 185.160156 82.007812 Z M 187.054688 89.285156 L 242.097656 123.082031 L 241.996094 186.140625 L 187.054688 218.398438 L 132.652344 186.148438 L 132.652344 123.074219 Z M 187.054688 89.285156 " fill-opacity="1" fill-rule="nonzero"/></g><path fill="#4f6fff" d="M 140.660156 183.332031 C 153.730469 190.855469 169.152344 199.757812 184.550781 208.703125 C 186.457031 209.8125 188.0625 209.808594 189.941406 208.703125 C 194.578125 205.988281 199.222656 203.277344 203.871094 200.570312 C 213.757812 194.804688 223.984375 188.84375 233.96875 182.871094 C 234.953125 182.277344 235.75 180.390625 235.867188 178.988281 C 236.050781 176.820312 236.019531 174.585938 235.992188 172.425781 C 235.972656 170.894531 235.953125 169.316406 235.992188 167.753906 C 236.042969 166.292969 235.59375 165.539062 234.269531 164.757812 C 229.183594 161.804688 224.128906 158.816406 219.097656 155.796875 C 215.070312 153.402344 211.035156 151.015625 207 148.636719 C 201.382812 145.332031 195.734375 142.066406 190.042969 138.777344 L 181.941406 134.089844 L 182.554688 133.492188 C 185.300781 130.832031 187.703125 130.53125 190.851562 132.414062 C 204.398438 140.578125 218.277344 148.523438 230.210938 155.3125 C 231.550781 156.074219 233.609375 156.390625 234.304688 155.945312 C 235.355469 155.257812 236.132812 153.210938 236.175781 151.804688 C 236.285156 147.921875 236.269531 143.964844 236.257812 140.125 C 236.257812 136.558594 236.234375 132.878906 236.324219 129.253906 C 236.386719 126.683594 235.4375 125.113281 233.039062 123.835938 C 230.097656 122.261719 227.164062 120.566406 224.328125 118.921875 L 217.199219 114.816406 C 207.929688 109.488281 198.675781 104.148438 189.429688 98.792969 C 187.851562 97.882812 186.621094 97.871094 185.121094 98.738281 C 180.15625 101.648438 175.179688 104.558594 170.199219 107.460938 C 160.570312 113.101562 150.609375 118.90625 140.859375 124.710938 C 140.28125 125.121094 139.804688 125.628906 139.429688 126.230469 C 139.054688 126.835938 138.8125 127.488281 138.703125 128.191406 C 138.433594 132.195312 138.433594 136.203125 138.703125 140.210938 C 138.835938 141.269531 139.328125 142.117188 140.175781 142.761719 C 145.4375 146.109375 150.894531 149.328125 155.53125 152.023438 C 164.488281 157.246094 173.464844 162.457031 182.457031 167.660156 L 192.734375 173.617188 L 192.078125 174.210938 C 189.859375 176.253906 187.316406 177.792969 183.859375 175.339844 C 181.566406 173.78125 179.195312 172.34375 176.753906 171.03125 C 175.769531 170.484375 174.792969 169.929688 173.820312 169.363281 L 167.441406 165.65625 C 159.945312 161.277344 152.195312 156.75 144.484375 152.441406 C 143.558594 151.960938 142.570312 151.722656 141.527344 151.726562 C 140.992188 151.703125 140.484375 151.800781 139.992188 152.015625 C 139.191406 152.417969 138.519531 154.464844 138.488281 155.925781 C 138.398438 160.355469 138.414062 164.824219 138.433594 169.171875 C 138.433594 172.554688 138.457031 175.9375 138.433594 179.324219 C 138.394531 181.246094 139.046875 182.402344 140.660156 183.332031 Z M 140.660156 183.332031 " fill-opacity="1" fill-rule="nonzero"/><g fill="#4f6fff" fill-opacity="1"><g transform="translate(45.719617, 273.705172)"><g><path d="M 10.890625 0.296875 C 8.921875 0.296875 7.179688 -0.0351562 5.671875 -0.703125 C 4.171875 -1.378906 3.007812 -2.332031 2.1875 -3.5625 C 1.363281 -4.800781 0.953125 -6.234375 0.953125 -7.859375 L 0.953125 -8.234375 C 0.953125 -8.691406 1.179688 -8.921875 1.640625 -8.921875 L 6.984375 -8.921875 C 7.453125 -8.921875 7.6875 -8.800781 7.6875 -8.5625 L 7.6875 -8.15625 C 7.6875 -7.5 8.035156 -6.898438 8.734375 -6.359375 C 9.441406 -5.828125 10.328125 -5.5625 11.390625 -5.5625 C 12.296875 -5.5625 12.941406 -5.75 13.328125 -6.125 C 13.710938 -6.507812 13.90625 -6.929688 13.90625 -7.390625 C 13.90625 -7.921875 13.660156 -8.320312 13.171875 -8.59375 C 12.691406 -8.863281 11.804688 -9.191406 10.515625 -9.578125 L 9.46875 -9.859375 C 7.0625 -10.585938 5.046875 -11.554688 3.421875 -12.765625 C 1.796875 -13.984375 0.984375 -15.75 0.984375 -18.0625 C 0.984375 -19.582031 1.394531 -20.929688 2.21875 -22.109375 C 3.039062 -23.285156 4.175781 -24.191406 5.625 -24.828125 C 7.070312 -25.460938 8.691406 -25.78125 10.484375 -25.78125 C 12.378906 -25.78125 14.097656 -25.425781 15.640625 -24.71875 C 17.179688 -24.019531 18.394531 -23.023438 19.28125 -21.734375 C 20.164062 -20.453125 20.609375 -18.984375 20.609375 -17.328125 L 20.609375 -17.140625 C 20.609375 -16.679688 20.378906 -16.453125 19.921875 -16.453125 L 14.5625 -16.453125 C 14.101562 -16.453125 13.875 -16.550781 13.875 -16.75 L 13.875 -17.03125 C 13.875 -17.757812 13.546875 -18.421875 12.890625 -19.015625 C 12.234375 -19.617188 11.347656 -19.921875 10.234375 -19.921875 C 9.453125 -19.921875 8.835938 -19.757812 8.390625 -19.4375 C 7.941406 -19.125 7.71875 -18.6875 7.71875 -18.125 C 7.71875 -17.6875 7.878906 -17.316406 8.203125 -17.015625 C 8.535156 -16.710938 9.039062 -16.421875 9.71875 -16.140625 C 10.394531 -15.867188 11.4375 -15.515625 12.84375 -15.078125 C 13.039062 -15.003906 13.894531 -14.738281 15.40625 -14.28125 C 16.925781 -13.832031 18.195312 -13.019531 19.21875 -11.84375 C 20.238281 -10.664062 20.75 -9.242188 20.75 -7.578125 C 20.75 -5.992188 20.335938 -4.609375 19.515625 -3.421875 C 18.691406 -2.234375 17.53125 -1.316406 16.03125 -0.671875 C 14.539062 -0.0234375 12.828125 0.296875 10.890625 0.296875 Z M 10.890625 0.296875 "/></g></g></g><g fill="#4f6fff" fill-opacity="1"><g transform="translate(69.896363, 273.705172)"><g><path d="M 18.609375 0 C 18.191406 0 17.9375 -0.191406 17.84375 -0.578125 L 17.109375 -3.203125 C 17.054688 -3.367188 16.945312 -3.453125 16.78125 -3.453125 L 9.203125 -3.453125 C 9.035156 -3.453125 8.929688 -3.367188 8.890625 -3.203125 L 8.15625 -0.578125 C 8.0625 -0.191406 7.804688 0 7.390625 0 L 1.5 0 C 1.25 0 1.066406 -0.0703125 0.953125 -0.21875 C 0.847656 -0.363281 0.832031 -0.554688 0.90625 -0.796875 L 8.484375 -24.90625 C 8.609375 -25.289062 8.863281 -25.484375 9.25 -25.484375 L 16.75 -25.484375 C 17.132812 -25.484375 17.390625 -25.289062 17.515625 -24.90625 L 25.078125 -0.796875 C 25.109375 -0.722656 25.125 -0.640625 25.125 -0.546875 C 25.125 -0.179688 24.914062 0 24.5 0 Z M 10.484375 -8.953125 C 10.484375 -8.785156 10.566406 -8.703125 10.734375 -8.703125 L 15.25 -8.703125 C 15.351562 -8.703125 15.425781 -8.734375 15.46875 -8.796875 C 15.519531 -8.859375 15.535156 -8.9375 15.515625 -9.03125 L 13.171875 -17.4375 C 13.148438 -17.5625 13.097656 -17.625 13.015625 -17.625 C 12.929688 -17.625 12.863281 -17.5625 12.8125 -17.4375 L 10.484375 -9.03125 Z M 10.484375 -8.953125 "/></g></g></g><g fill="#4f6fff" fill-opacity="1"><g transform="translate(98.333093, 273.705172)"><g><path d="M 19.84375 -20.3125 C 19.84375 -19.851562 19.613281 -19.625 19.15625 -19.625 L 8.5625 -19.625 C 8.363281 -19.625 8.265625 -19.523438 8.265625 -19.328125 L 8.265625 -16.125 C 8.265625 -15.9375 8.363281 -15.84375 8.5625 -15.84375 L 15.03125 -15.84375 C 15.5 -15.84375 15.734375 -15.609375 15.734375 -15.140625 L 15.734375 -10.703125 C 15.734375 -10.242188 15.5 -10.015625 15.03125 -10.015625 L 8.5625 -10.015625 C 8.363281 -10.015625 8.265625 -9.914062 8.265625 -9.71875 L 8.265625 -0.6875 C 8.265625 -0.226562 8.035156 0 7.578125 0 L 2.109375 0 C 1.648438 0 1.421875 -0.226562 1.421875 -0.6875 L 1.421875 -24.796875 C 1.421875 -25.253906 1.648438 -25.484375 2.109375 -25.484375 L 19.15625 -25.484375 C 19.613281 -25.484375 19.84375 -25.253906 19.84375 -24.796875 Z M 19.84375 -20.3125 "/></g></g></g><g fill="#4f6fff" fill-opacity="1"><g transform="translate(120.944208, 273.705172)"><g><path d="M 2.109375 0 C 1.648438 0 1.421875 -0.226562 1.421875 -0.6875 L 1.421875 -24.796875 C 1.421875 -25.253906 1.648438 -25.484375 2.109375 -25.484375 L 7.578125 -25.484375 C 8.035156 -25.484375 8.265625 -25.253906 8.265625 -24.796875 L 8.265625 -0.6875 C 8.265625 -0.226562 8.035156 0 7.578125 0 Z M 2.109375 0 "/></g></g></g><g fill="#4f6fff" fill-opacity="1"><g transform="translate(133.069216, 273.705172)"><g><path d="M 18.609375 0 C 18.191406 0 17.9375 -0.191406 17.84375 -0.578125 L 17.109375 -3.203125 C 17.054688 -3.367188 16.945312 -3.453125 16.78125 -3.453125 L 9.203125 -3.453125 C 9.035156 -3.453125 8.929688 -3.367188 8.890625 -3.203125 L 8.15625 -0.578125 C 8.0625 -0.191406 7.804688 0 7.390625 0 L 1.5 0 C 1.25 0 1.066406 -0.0703125 0.953125 -0.21875 C 0.847656 -0.363281 0.832031 -0.554688 0.90625 -0.796875 L 8.484375 -24.90625 C 8.609375 -25.289062 8.863281 -25.484375 9.25 -25.484375 L 16.75 -25.484375 C 17.132812 -25.484375 17.390625 -25.289062 17.515625 -24.90625 L 25.078125 -0.796875 C 25.109375 -0.722656 25.125 -0.640625 25.125 -0.546875 C 25.125 -0.179688 24.914062 0 24.5 0 Z M 10.484375 -8.953125 C 10.484375 -8.785156 10.566406 -8.703125 10.734375 -8.703125 L 15.25 -8.703125 C 15.351562 -8.703125 15.425781 -8.734375 15.46875 -8.796875 C 15.519531 -8.859375 15.535156 -8.9375 15.515625 -9.03125 L 13.171875 -17.4375 C 13.148438 -17.5625 13.097656 -17.625 13.015625 -17.625 C 12.929688 -17.625 12.863281 -17.5625 12.8125 -17.4375 L 10.484375 -9.03125 Z M 10.484375 -8.953125 "/></g></g></g><g fill="#4f6fff" fill-opacity="1"><g transform="translate(161.50594, 273.705172)"><g/></g></g><g fill="#4f6fff" fill-opacity="1"><g transform="translate(171.22789, 273.705172)"><g><path d="M 19.875 -20.3125 C 19.875 -19.851562 19.644531 -19.625 19.1875 -19.625 L 8.5625 -19.625 C 8.363281 -19.625 8.265625 -19.523438 8.265625 -19.328125 L 8.265625 -16.125 C 8.265625 -15.9375 8.363281 -15.84375 8.5625 -15.84375 L 15.03125 -15.84375 C 15.5 -15.84375 15.734375 -15.609375 15.734375 -15.140625 L 15.734375 -10.703125 C 15.734375 -10.242188 15.5 -10.015625 15.03125 -10.015625 L 8.5625 -10.015625 C 8.363281 -10.015625 8.265625 -9.914062 8.265625 -9.71875 L 8.265625 -6.15625 C 8.265625 -5.957031 8.363281 -5.859375 8.5625 -5.859375 L 19.1875 -5.859375 C 19.644531 -5.859375 19.875 -5.628906 19.875 -5.171875 L 19.875 -0.6875 C 19.875 -0.226562 19.644531 0 19.1875 0 L 2.109375 0 C 1.648438 0 1.421875 -0.226562 1.421875 -0.6875 L 1.421875 -24.796875 C 1.421875 -25.253906 1.648438 -25.484375 2.109375 -25.484375 L 19.1875 -25.484375 C 19.644531 -25.484375 19.875 -25.253906 19.875 -24.796875 Z M 19.875 -20.3125 "/></g></g></g><g fill="#4f6fff" fill-opacity="1"><g transform="translate(194.421572, 273.705172)"><g><path d="M 11.140625 0.296875 C 9.148438 0.296875 7.394531 -0.0859375 5.875 -0.859375 C 4.363281 -1.640625 3.1875 -2.738281 2.34375 -4.15625 C 1.507812 -5.582031 1.09375 -7.234375 1.09375 -9.109375 L 1.09375 -16.453125 C 1.09375 -18.296875 1.507812 -19.921875 2.34375 -21.328125 C 3.1875 -22.742188 4.363281 -23.835938 5.875 -24.609375 C 7.394531 -25.390625 9.148438 -25.78125 11.140625 -25.78125 C 13.128906 -25.78125 14.878906 -25.414062 16.390625 -24.6875 C 17.910156 -23.957031 19.085938 -22.929688 19.921875 -21.609375 C 20.765625 -20.285156 21.1875 -18.75 21.1875 -17 C 21.1875 -16.78125 20.96875 -16.644531 20.53125 -16.59375 L 15.078125 -16.234375 L 14.890625 -16.234375 C 14.523438 -16.234375 14.34375 -16.296875 14.34375 -16.421875 L 14.34375 -16.640625 C 14.34375 -17.628906 14.050781 -18.421875 13.46875 -19.015625 C 12.882812 -19.617188 12.109375 -19.921875 11.140625 -19.921875 C 10.171875 -19.921875 9.394531 -19.617188 8.8125 -19.015625 C 8.226562 -18.421875 7.9375 -17.628906 7.9375 -16.640625 L 7.9375 -8.8125 C 7.9375 -7.84375 8.226562 -7.054688 8.8125 -6.453125 C 9.394531 -5.859375 10.171875 -5.5625 11.140625 -5.5625 C 12.109375 -5.5625 12.882812 -5.859375 13.46875 -6.453125 C 14.050781 -7.054688 14.34375 -7.84375 14.34375 -8.8125 C 14.34375 -8.9375 14.410156 -9.039062 14.546875 -9.125 C 14.679688 -9.207031 14.859375 -9.234375 15.078125 -9.203125 L 20.53125 -8.921875 C 20.96875 -8.898438 21.1875 -8.835938 21.1875 -8.734375 L 21.1875 -8.5625 C 21.1875 -6.8125 20.765625 -5.265625 19.921875 -3.921875 C 19.085938 -2.585938 17.910156 -1.550781 16.390625 -0.8125 C 14.878906 -0.0703125 13.128906 0.296875 11.140625 0.296875 Z M 11.140625 0.296875 "/></g></g></g><g fill="#4f6fff" fill-opacity="1"><g transform="translate(219.035248, 273.705172)"><g><path d="M 14.3125 -24.796875 C 14.3125 -25.253906 14.539062 -25.484375 15 -25.484375 L 20.453125 -25.484375 C 20.921875 -25.484375 21.15625 -25.253906 21.15625 -24.796875 L 21.15625 -0.6875 C 21.15625 -0.226562 20.921875 0 20.453125 0 L 15 0 C 14.539062 0 14.3125 -0.226562 14.3125 -0.6875 L 14.3125 -9.6875 C 14.3125 -9.875 14.210938 -9.96875 14.015625 -9.96875 L 8.5625 -9.96875 C 8.363281 -9.96875 8.265625 -9.875 8.265625 -9.6875 L 8.265625 -0.6875 C 8.265625 -0.226562 8.035156 0 7.578125 0 L 2.109375 0 C 1.648438 0 1.421875 -0.226562 1.421875 -0.6875 L 1.421875 -24.796875 C 1.421875 -25.253906 1.648438 -25.484375 2.109375 -25.484375 L 7.578125 -25.484375 C 8.035156 -25.484375 8.265625 -25.253906 8.265625 -24.796875 L 8.265625 -16.125 C 8.265625 -15.9375 8.363281 -15.84375 8.5625 -15.84375 L 14.015625 -15.84375 C 14.210938 -15.84375 14.3125 -15.9375 14.3125 -16.125 Z M 14.3125 -24.796875 "/></g></g></g><g fill="#4f6fff" fill-opacity="1"><g transform="translate(243.721732, 273.705172)"><g><path d="M 18.609375 0 C 18.191406 0 17.9375 -0.191406 17.84375 -0.578125 L 17.109375 -3.203125 C 17.054688 -3.367188 16.945312 -3.453125 16.78125 -3.453125 L 9.203125 -3.453125 C 9.035156 -3.453125 8.929688 -3.367188 8.890625 -3.203125 L 8.15625 -0.578125 C 8.0625 -0.191406 7.804688 0 7.390625 0 L 1.5 0 C 1.25 0 1.066406 -0.0703125 0.953125 -0.21875 C 0.847656 -0.363281 0.832031 -0.554688 0.90625 -0.796875 L 8.484375 -24.90625 C 8.609375 -25.289062 8.863281 -25.484375 9.25 -25.484375 L 16.75 -25.484375 C 17.132812 -25.484375 17.390625 -25.289062 17.515625 -24.90625 L 25.078125 -0.796875 C 25.109375 -0.722656 25.125 -0.640625 25.125 -0.546875 C 25.125 -0.179688 24.914062 0 24.5 0 Z M 10.484375 -8.953125 C 10.484375 -8.785156 10.566406 -8.703125 10.734375 -8.703125 L 15.25 -8.703125 C 15.351562 -8.703125 15.425781 -8.734375 15.46875 -8.796875 C 15.519531 -8.859375 15.535156 -8.9375 15.515625 -9.03125 L 13.171875 -17.4375 C 13.148438 -17.5625 13.097656 -17.625 13.015625 -17.625 C 12.929688 -17.625 12.863281 -17.5625 12.8125 -17.4375 L 10.484375 -9.03125 Z M 10.484375 -8.953125 "/></g></g></g><g fill="#4f6fff" fill-opacity="1"><g transform="translate(272.158467, 273.705172)"><g><path d="M 14.96875 0 C 14.570312 0 14.300781 -0.171875 14.15625 -0.515625 L 10.234375 -9.578125 C 10.179688 -9.722656 10.054688 -9.796875 9.859375 -9.796875 L 8.5625 -9.796875 C 8.363281 -9.796875 8.265625 -9.695312 8.265625 -9.5 L 8.265625 -0.6875 C 8.265625 -0.226562 8.035156 0 7.578125 0 L 2.109375 0 C 1.648438 0 1.421875 -0.226562 1.421875 -0.6875 L 1.421875 -24.796875 C 1.421875 -25.253906 1.648438 -25.484375 2.109375 -25.484375 L 13 -25.484375 C 14.644531 -25.484375 16.09375 -25.144531 17.34375 -24.46875 C 18.59375 -23.789062 19.5625 -22.835938 20.25 -21.609375 C 20.945312 -20.378906 21.296875 -18.960938 21.296875 -17.359375 C 21.296875 -15.785156 20.910156 -14.40625 20.140625 -13.21875 C 19.378906 -12.03125 18.320312 -11.144531 16.96875 -10.5625 C 16.789062 -10.488281 16.738281 -10.363281 16.8125 -10.1875 L 21.265625 -0.796875 C 21.304688 -0.703125 21.328125 -0.582031 21.328125 -0.4375 C 21.328125 -0.144531 21.132812 0 20.75 0 Z M 8.5625 -19.625 C 8.363281 -19.625 8.265625 -19.523438 8.265625 -19.328125 L 8.265625 -15.296875 C 8.265625 -15.097656 8.363281 -15 8.5625 -15 L 11.875 -15 C 12.644531 -15 13.269531 -15.210938 13.75 -15.640625 C 14.238281 -16.066406 14.484375 -16.617188 14.484375 -17.296875 C 14.484375 -17.992188 14.238281 -18.554688 13.75 -18.984375 C 13.269531 -19.410156 12.644531 -19.625 11.875 -19.625 Z M 8.5625 -19.625 "/></g></g></g><g fill="#4f6fff" fill-opacity="1"><g transform="translate(296.990588, 273.705172)"><g><path d="M 2.109375 0 C 1.648438 0 1.421875 -0.226562 1.421875 -0.6875 L 1.421875 -24.796875 C 1.421875 -25.253906 1.648438 -25.484375 2.109375 -25.484375 L 7.578125 -25.484375 C 8.035156 -25.484375 8.265625 -25.253906 8.265625 -24.796875 L 8.265625 -0.6875 C 8.265625 -0.226562 8.035156 0 7.578125 0 Z M 2.109375 0 "/></g></g></g><g fill="#4f6fff" fill-opacity="1"><g transform="translate(309.115602, 273.705172)"><g><path d="M 19.84375 -20.3125 C 19.84375 -19.851562 19.613281 -19.625 19.15625 -19.625 L 8.5625 -19.625 C 8.363281 -19.625 8.265625 -19.523438 8.265625 -19.328125 L 8.265625 -16.125 C 8.265625 -15.9375 8.363281 -15.84375 8.5625 -15.84375 L 15.03125 -15.84375 C 15.5 -15.84375 15.734375 -15.609375 15.734375 -15.140625 L 15.734375 -10.703125 C 15.734375 -10.242188 15.5 -10.015625 15.03125 -10.015625 L 8.5625 -10.015625 C 8.363281 -10.015625 8.265625 -9.914062 8.265625 -9.71875 L 8.265625 -0.6875 C 8.265625 -0.226562 8.035156 0 7.578125 0 L 2.109375 0 C 1.648438 0 1.421875 -0.226562 1.421875 -0.6875 L 1.421875 -24.796875 C 1.421875 -25.253906 1.648438 -25.484375 2.109375 -25.484375 L 19.15625 -25.484375 C 19.613281 -25.484375 19.84375 -25.253906 19.84375 -24.796875 Z M 19.84375 -20.3125 "/></g></g></g><g fill="#a6a6a6" fill-opacity="1"><g transform="translate(85.595009, 312.262861)"><g><path d="M 2.765625 0 C 2.628906 0 2.519531 -0.0351562 2.4375 -0.109375 C 2.363281 -0.191406 2.328125 -0.296875 2.328125 -0.421875 L 2.328125 -19.515625 C 2.328125 -19.648438 2.363281 -19.753906 2.4375 -19.828125 C 2.519531 -19.898438 2.628906 -19.9375 2.765625 -19.9375 L 9.515625 -19.9375 C 11.484375 -19.9375 13.054688 -19.414062 14.234375 -18.375 C 15.421875 -17.34375 16.015625 -15.960938 16.015625 -14.234375 L 16.015625 -5.703125 C 16.015625 -3.972656 15.421875 -2.585938 14.234375 -1.546875 C 13.054688 -0.515625 11.484375 0 9.515625 0 Z M 5.0625 -2.5 C 5.0625 -2.40625 5.113281 -2.359375 5.21875 -2.359375 L 9.625 -2.359375 C 10.726562 -2.359375 11.609375 -2.695312 12.265625 -3.375 C 12.921875 -4.050781 13.257812 -4.957031 13.28125 -6.09375 L 13.28125 -13.84375 C 13.28125 -14.976562 12.953125 -15.882812 12.296875 -16.5625 C 11.640625 -17.238281 10.75 -17.578125 9.625 -17.578125 L 5.21875 -17.578125 C 5.113281 -17.578125 5.0625 -17.53125 5.0625 -17.4375 Z M 5.0625 -2.5 "/></g></g></g><g fill="#a6a6a6" fill-opacity="1"><g transform="translate(105.415428, 312.262861)"><g><path d="M 7.328125 -14.71875 C 8.484375 -14.71875 9.492188 -14.515625 10.359375 -14.109375 C 11.222656 -13.703125 11.882812 -13.132812 12.34375 -12.40625 C 12.8125 -11.675781 13.046875 -10.84375 13.046875 -9.90625 L 13.046875 -0.421875 C 13.046875 -0.296875 13.003906 -0.191406 12.921875 -0.109375 C 12.847656 -0.0351562 12.75 0 12.625 0 L 10.734375 0 C 10.609375 0 10.503906 -0.0351562 10.421875 -0.109375 C 10.347656 -0.191406 10.3125 -0.296875 10.3125 -0.421875 L 10.3125 -1.21875 C 10.3125 -1.28125 10.289062 -1.320312 10.25 -1.34375 C 10.21875 -1.363281 10.179688 -1.351562 10.140625 -1.3125 C 9.609375 -0.8125 8.976562 -0.425781 8.25 -0.15625 C 7.519531 0.101562 6.726562 0.234375 5.875 0.234375 C 4.476562 0.234375 3.332031 -0.117188 2.4375 -0.828125 C 1.550781 -1.546875 1.109375 -2.628906 1.109375 -4.078125 C 1.109375 -5.554688 1.625 -6.71875 2.65625 -7.5625 C 3.695312 -8.40625 5.144531 -8.828125 7 -8.828125 L 10.171875 -8.828125 C 10.265625 -8.828125 10.3125 -8.875 10.3125 -8.96875 L 10.3125 -9.71875 C 10.3125 -10.550781 10.066406 -11.195312 9.578125 -11.65625 C 9.097656 -12.125 8.363281 -12.359375 7.375 -12.359375 C 6.59375 -12.359375 5.957031 -12.210938 5.46875 -11.921875 C 4.988281 -11.640625 4.675781 -11.242188 4.53125 -10.734375 C 4.457031 -10.492188 4.296875 -10.378906 4.046875 -10.390625 L 2 -10.65625 C 1.863281 -10.675781 1.753906 -10.71875 1.671875 -10.78125 C 1.597656 -10.84375 1.570312 -10.925781 1.59375 -11.03125 C 1.757812 -12.101562 2.367188 -12.984375 3.421875 -13.671875 C 4.484375 -14.367188 5.785156 -14.71875 7.328125 -14.71875 Z M 6.546875 -2.078125 C 7.554688 -2.078125 8.4375 -2.34375 9.1875 -2.875 C 9.9375 -3.40625 10.3125 -4.082031 10.3125 -4.90625 L 10.3125 -6.546875 C 10.3125 -6.640625 10.265625 -6.6875 10.171875 -6.6875 L 7.515625 -6.6875 C 6.398438 -6.6875 5.507812 -6.46875 4.84375 -6.03125 C 4.175781 -5.601562 3.84375 -5 3.84375 -4.21875 C 3.84375 -3.507812 4.09375 -2.972656 4.59375 -2.609375 C 5.101562 -2.253906 5.753906 -2.078125 6.546875 -2.078125 Z M 6.546875 -2.078125 "/></g></g></g><g fill="#a6a6a6" fill-opacity="1"><g transform="translate(122.359729, 312.262861)"><g><path d="M 9.140625 -12.671875 C 9.140625 -12.535156 9.101562 -12.429688 9.03125 -12.359375 C 8.957031 -12.285156 8.851562 -12.25 8.71875 -12.25 L 5.8125 -12.25 C 5.71875 -12.25 5.671875 -12.203125 5.671875 -12.109375 L 5.671875 -4.671875 C 5.671875 -3.859375 5.84375 -3.28125 6.1875 -2.9375 C 6.539062 -2.59375 7.109375 -2.421875 7.890625 -2.421875 L 8.578125 -2.421875 C 8.703125 -2.421875 8.800781 -2.378906 8.875 -2.296875 C 8.957031 -2.222656 9 -2.125 9 -2 L 9 -0.515625 C 9 -0.242188 8.859375 -0.09375 8.578125 -0.0625 L 7.40625 -0.03125 C 5.945312 -0.03125 4.851562 -0.285156 4.125 -0.796875 C 3.40625 -1.304688 3.046875 -2.265625 3.046875 -3.671875 L 3.046875 -12.109375 C 3.046875 -12.203125 3 -12.25 2.90625 -12.25 L 1.34375 -12.25 C 1.207031 -12.25 1.097656 -12.285156 1.015625 -12.359375 C 0.941406 -12.429688 0.90625 -12.535156 0.90625 -12.671875 L 0.90625 -14.078125 C 0.90625 -14.203125 0.941406 -14.300781 1.015625 -14.375 C 1.097656 -14.457031 1.207031 -14.5 1.34375 -14.5 L 2.90625 -14.5 C 3 -14.5 3.046875 -14.546875 3.046875 -14.640625 L 3.046875 -17.828125 C 3.046875 -17.960938 3.082031 -18.066406 3.15625 -18.140625 C 3.238281 -18.222656 3.34375 -18.265625 3.46875 -18.265625 L 5.234375 -18.265625 C 5.367188 -18.265625 5.472656 -18.222656 5.546875 -18.140625 C 5.628906 -18.066406 5.671875 -17.960938 5.671875 -17.828125 L 5.671875 -14.640625 C 5.671875 -14.546875 5.71875 -14.5 5.8125 -14.5 L 8.71875 -14.5 C 8.851562 -14.5 8.957031 -14.457031 9.03125 -14.375 C 9.101562 -14.300781 9.140625 -14.203125 9.140625 -14.078125 Z M 9.140625 -12.671875 "/></g></g></g><g fill="#a6a6a6" fill-opacity="1"><g transform="translate(135.0895, 312.262861)"><g><path d="M 7.328125 -14.71875 C 8.484375 -14.71875 9.492188 -14.515625 10.359375 -14.109375 C 11.222656 -13.703125 11.882812 -13.132812 12.34375 -12.40625 C 12.8125 -11.675781 13.046875 -10.84375 13.046875 -9.90625 L 13.046875 -0.421875 C 13.046875 -0.296875 13.003906 -0.191406 12.921875 -0.109375 C 12.847656 -0.0351562 12.75 0 12.625 0 L 10.734375 0 C 10.609375 0 10.503906 -0.0351562 10.421875 -0.109375 C 10.347656 -0.191406 10.3125 -0.296875 10.3125 -0.421875 L 10.3125 -1.21875 C 10.3125 -1.28125 10.289062 -1.320312 10.25 -1.34375 C 10.21875 -1.363281 10.179688 -1.351562 10.140625 -1.3125 C 9.609375 -0.8125 8.976562 -0.425781 8.25 -0.15625 C 7.519531 0.101562 6.726562 0.234375 5.875 0.234375 C 4.476562 0.234375 3.332031 -0.117188 2.4375 -0.828125 C 1.550781 -1.546875 1.109375 -2.628906 1.109375 -4.078125 C 1.109375 -5.554688 1.625 -6.71875 2.65625 -7.5625 C 3.695312 -8.40625 5.144531 -8.828125 7 -8.828125 L 10.171875 -8.828125 C 10.265625 -8.828125 10.3125 -8.875 10.3125 -8.96875 L 10.3125 -9.71875 C 10.3125 -10.550781 10.066406 -11.195312 9.578125 -11.65625 C 9.097656 -12.125 8.363281 -12.359375 7.375 -12.359375 C 6.59375 -12.359375 5.957031 -12.210938 5.46875 -11.921875 C 4.988281 -11.640625 4.675781 -11.242188 4.53125 -10.734375 C 4.457031 -10.492188 4.296875 -10.378906 4.046875 -10.390625 L 2 -10.65625 C 1.863281 -10.675781 1.753906 -10.71875 1.671875 -10.78125 C 1.597656 -10.84375 1.570312 -10.925781 1.59375 -11.03125 C 1.757812 -12.101562 2.367188 -12.984375 3.421875 -13.671875 C 4.484375 -14.367188 5.785156 -14.71875 7.328125 -14.71875 Z M 6.546875 -2.078125 C 7.554688 -2.078125 8.4375 -2.34375 9.1875 -2.875 C 9.9375 -3.40625 10.3125 -4.082031 10.3125 -4.90625 L 10.3125 -6.546875 C 10.3125 -6.640625 10.265625 -6.6875 10.171875 -6.6875 L 7.515625 -6.6875 C 6.398438 -6.6875 5.507812 -6.46875 4.84375 -6.03125 C 4.175781 -5.601562 3.84375 -5 3.84375 -4.21875 C 3.84375 -3.507812 4.09375 -2.972656 4.59375 -2.609375 C 5.101562 -2.253906 5.753906 -2.078125 6.546875 -2.078125 Z M 6.546875 -2.078125 "/></g></g></g><g fill="#a6a6a6" fill-opacity="1"><g transform="translate(152.033805, 312.262861)"><g/></g></g><g fill="#a6a6a6" fill-opacity="1"><g transform="translate(159.951067, 312.262861)"><g><path d="M 8.484375 0.234375 C 7.066406 0.234375 5.820312 0.00390625 4.75 -0.453125 C 3.6875 -0.910156 2.863281 -1.554688 2.28125 -2.390625 C 1.707031 -3.222656 1.421875 -4.203125 1.421875 -5.328125 L 1.421875 -6.015625 C 1.421875 -6.140625 1.457031 -6.238281 1.53125 -6.3125 C 1.613281 -6.394531 1.71875 -6.4375 1.84375 -6.4375 L 3.671875 -6.4375 C 3.804688 -6.4375 3.910156 -6.394531 3.984375 -6.3125 C 4.066406 -6.238281 4.109375 -6.140625 4.109375 -6.015625 L 4.109375 -5.46875 C 4.109375 -4.5 4.523438 -3.703125 5.359375 -3.078125 C 6.191406 -2.453125 7.300781 -2.140625 8.6875 -2.140625 C 10 -2.140625 10.984375 -2.410156 11.640625 -2.953125 C 12.304688 -3.503906 12.640625 -4.226562 12.640625 -5.125 C 12.640625 -5.71875 12.46875 -6.222656 12.125 -6.640625 C 11.789062 -7.054688 11.296875 -7.4375 10.640625 -7.78125 C 9.984375 -8.132812 9.03125 -8.5625 7.78125 -9.0625 C 6.394531 -9.59375 5.296875 -10.078125 4.484375 -10.515625 C 3.679688 -10.953125 3.015625 -11.523438 2.484375 -12.234375 C 1.953125 -12.941406 1.6875 -13.835938 1.6875 -14.921875 C 1.6875 -16.554688 2.269531 -17.835938 3.4375 -18.765625 C 4.601562 -19.703125 6.179688 -20.171875 8.171875 -20.171875 C 9.578125 -20.171875 10.8125 -19.929688 11.875 -19.453125 C 12.9375 -18.984375 13.753906 -18.316406 14.328125 -17.453125 C 14.910156 -16.597656 15.203125 -15.613281 15.203125 -14.5 L 15.203125 -14.078125 C 15.203125 -13.941406 15.164062 -13.832031 15.09375 -13.75 C 15.019531 -13.675781 14.914062 -13.640625 14.78125 -13.640625 L 12.9375 -13.640625 C 12.800781 -13.640625 12.691406 -13.671875 12.609375 -13.734375 C 12.535156 -13.804688 12.5 -13.898438 12.5 -14.015625 L 12.5 -14.359375 C 12.5 -15.347656 12.101562 -16.164062 11.3125 -16.8125 C 10.53125 -17.46875 9.445312 -17.796875 8.0625 -17.796875 C 6.882812 -17.796875 5.972656 -17.550781 5.328125 -17.0625 C 4.679688 -16.582031 4.359375 -15.890625 4.359375 -14.984375 C 4.359375 -14.359375 4.519531 -13.84375 4.84375 -13.4375 C 5.164062 -13.039062 5.644531 -12.6875 6.28125 -12.375 C 6.914062 -12.0625 7.890625 -11.660156 9.203125 -11.171875 C 10.546875 -10.640625 11.632812 -10.148438 12.46875 -9.703125 C 13.3125 -9.253906 14.003906 -8.664062 14.546875 -7.9375 C 15.097656 -7.207031 15.375 -6.300781 15.375 -5.21875 C 15.375 -4.132812 15.097656 -3.179688 14.546875 -2.359375 C 14.003906 -1.546875 13.207031 -0.910156 12.15625 -0.453125 C 11.113281 0.00390625 9.890625 0.234375 8.484375 0.234375 Z M 8.484375 0.234375 "/></g></g></g><g fill="#a6a6a6" fill-opacity="1"><g transform="translate(178.917199, 312.262861)"><g><path d="M 7.8125 0.234375 C 6.363281 0.234375 5.125 -0.128906 4.09375 -0.859375 C 3.070312 -1.597656 2.375 -2.59375 2 -3.84375 C 1.707031 -4.71875 1.5625 -5.867188 1.5625 -7.296875 C 1.5625 -8.597656 1.707031 -9.742188 2 -10.734375 C 2.375 -11.953125 3.078125 -12.921875 4.109375 -13.640625 C 5.148438 -14.359375 6.382812 -14.71875 7.8125 -14.71875 C 9.226562 -14.71875 10.46875 -14.359375 11.53125 -13.640625 C 12.59375 -12.921875 13.285156 -12.007812 13.609375 -10.90625 C 13.710938 -10.664062 13.78125 -10.398438 13.8125 -10.109375 L 13.8125 -10.0625 C 13.8125 -9.832031 13.6875 -9.695312 13.4375 -9.65625 L 11.59375 -9.40625 L 11.5 -9.40625 C 11.289062 -9.40625 11.160156 -9.507812 11.109375 -9.71875 L 11.03125 -10.078125 C 10.875 -10.722656 10.5 -11.265625 9.90625 -11.703125 C 9.320312 -12.140625 8.613281 -12.359375 7.78125 -12.359375 C 6.957031 -12.359375 6.257812 -12.140625 5.6875 -11.703125 C 5.125 -11.265625 4.757812 -10.6875 4.59375 -9.96875 C 4.414062 -9.28125 4.328125 -8.378906 4.328125 -7.265625 C 4.328125 -6.160156 4.414062 -5.269531 4.59375 -4.59375 C 4.78125 -3.832031 5.148438 -3.234375 5.703125 -2.796875 C 6.265625 -2.359375 6.957031 -2.140625 7.78125 -2.140625 C 8.59375 -2.140625 9.289062 -2.351562 9.875 -2.78125 C 10.46875 -3.207031 10.851562 -3.753906 11.03125 -4.421875 L 11.046875 -4.53125 L 11.046875 -4.5625 C 11.066406 -4.65625 11.125 -4.742188 11.21875 -4.828125 C 11.3125 -4.910156 11.414062 -4.941406 11.53125 -4.921875 L 13.390625 -4.609375 C 13.648438 -4.554688 13.773438 -4.40625 13.765625 -4.15625 C 13.742188 -4.082031 13.691406 -3.90625 13.609375 -3.625 C 13.285156 -2.457031 12.59375 -1.519531 11.53125 -0.8125 C 10.46875 -0.113281 9.226562 0.234375 7.8125 0.234375 Z M 7.8125 0.234375 "/></g></g></g><g fill="#a6a6a6" fill-opacity="1"><g transform="translate(196.117782, 312.262861)"><g><path d="M 3.59375 -16.65625 C 3.039062 -16.65625 2.585938 -16.820312 2.234375 -17.15625 C 1.878906 -17.488281 1.703125 -17.921875 1.703125 -18.453125 C 1.703125 -18.984375 1.878906 -19.414062 2.234375 -19.75 C 2.585938 -20.082031 3.039062 -20.25 3.59375 -20.25 C 4.144531 -20.25 4.585938 -20.082031 4.921875 -19.75 C 5.265625 -19.414062 5.4375 -18.984375 5.4375 -18.453125 C 5.4375 -17.921875 5.265625 -17.488281 4.921875 -17.15625 C 4.585938 -16.820312 4.144531 -16.65625 3.59375 -16.65625 Z M 2.65625 0 C 2.519531 0 2.410156 -0.0351562 2.328125 -0.109375 C 2.253906 -0.191406 2.21875 -0.296875 2.21875 -0.421875 L 2.21875 -14.078125 C 2.21875 -14.203125 2.253906 -14.300781 2.328125 -14.375 C 2.410156 -14.457031 2.519531 -14.5 2.65625 -14.5 L 4.53125 -14.5 C 4.664062 -14.5 4.769531 -14.457031 4.84375 -14.375 C 4.914062 -14.300781 4.953125 -14.203125 4.953125 -14.078125 L 4.953125 -0.421875 C 4.953125 -0.296875 4.914062 -0.191406 4.84375 -0.109375 C 4.769531 -0.0351562 4.664062 0 4.53125 0 Z M 2.65625 0 "/></g></g></g><g fill="#a6a6a6" fill-opacity="1"><g transform="translate(205.487334, 312.262861)"><g><path d="M 8.09375 -2.109375 C 9.625 -2.128906 10.722656 -2.726562 11.390625 -3.90625 C 11.484375 -4.070312 11.585938 -4.15625 11.703125 -4.15625 C 11.796875 -4.15625 11.882812 -4.128906 11.96875 -4.078125 L 13.125 -3.359375 C 13.28125 -3.265625 13.359375 -3.140625 13.359375 -2.984375 L 13.296875 -2.765625 C 12.785156 -1.835938 12.0625 -1.101562 11.125 -0.5625 C 10.1875 -0.03125 9.085938 0.234375 7.828125 0.234375 C 6.484375 0.234375 5.34375 -0.0625 4.40625 -0.65625 C 3.476562 -1.257812 2.78125 -2.125 2.3125 -3.25 C 1.832031 -4.40625 1.59375 -5.765625 1.59375 -7.328125 C 1.59375 -8.710938 1.695312 -9.765625 1.90625 -10.484375 C 2.25 -11.796875 2.929688 -12.828125 3.953125 -13.578125 C 4.984375 -14.335938 6.226562 -14.71875 7.6875 -14.71875 C 9.488281 -14.71875 10.863281 -14.25 11.8125 -13.3125 C 12.769531 -12.375 13.390625 -11.015625 13.671875 -9.234375 C 13.765625 -8.523438 13.832031 -7.671875 13.875 -6.671875 C 13.875 -6.378906 13.726562 -6.234375 13.4375 -6.234375 L 4.4375 -6.234375 C 4.34375 -6.234375 4.296875 -6.1875 4.296875 -6.09375 C 4.335938 -5.375 4.40625 -4.863281 4.5 -4.5625 C 4.707031 -3.800781 5.125 -3.203125 5.75 -2.765625 C 6.375 -2.328125 7.15625 -2.109375 8.09375 -2.109375 Z M 7.6875 -12.359375 C 6.851562 -12.359375 6.175781 -12.160156 5.65625 -11.765625 C 5.132812 -11.367188 4.78125 -10.816406 4.59375 -10.109375 C 4.457031 -9.691406 4.367188 -9.160156 4.328125 -8.515625 C 4.328125 -8.421875 4.375 -8.375 4.46875 -8.375 L 10.9375 -8.375 C 11.03125 -8.375 11.078125 -8.421875 11.078125 -8.515625 C 11.046875 -9.140625 10.988281 -9.601562 10.90625 -9.90625 C 10.71875 -10.65625 10.34375 -11.25 9.78125 -11.6875 C 9.21875 -12.132812 8.519531 -12.359375 7.6875 -12.359375 Z M 7.6875 -12.359375 "/></g></g></g><g fill="#a6a6a6" fill-opacity="1"><g transform="translate(223.029638, 312.262861)"><g><path d="M 8.453125 -14.703125 C 10.015625 -14.703125 11.25 -14.25 12.15625 -13.34375 C 13.070312 -12.4375 13.53125 -11.21875 13.53125 -9.6875 L 13.53125 -0.421875 C 13.53125 -0.296875 13.488281 -0.191406 13.40625 -0.109375 C 13.332031 -0.0351562 13.234375 0 13.109375 0 L 11.21875 0 C 11.09375 0 10.988281 -0.0351562 10.90625 -0.109375 C 10.832031 -0.191406 10.796875 -0.296875 10.796875 -0.421875 L 10.796875 -9.140625 C 10.796875 -10.085938 10.519531 -10.851562 9.96875 -11.4375 C 9.414062 -12.03125 8.6875 -12.328125 7.78125 -12.328125 C 6.957031 -12.328125 6.265625 -12.082031 5.703125 -11.59375 C 5.148438 -11.113281 4.828125 -10.46875 4.734375 -9.65625 L 4.734375 -0.421875 C 4.734375 -0.296875 4.691406 -0.191406 4.609375 -0.109375 C 4.535156 -0.0351562 4.429688 0 4.296875 0 L 2.421875 0 C 2.285156 0 2.179688 -0.0351562 2.109375 -0.109375 C 2.035156 -0.191406 2 -0.296875 2 -0.421875 L 2 -14.078125 C 2 -14.203125 2.035156 -14.300781 2.109375 -14.375 C 2.179688 -14.457031 2.285156 -14.5 2.421875 -14.5 L 4.296875 -14.5 C 4.429688 -14.5 4.535156 -14.457031 4.609375 -14.375 C 4.691406 -14.300781 4.734375 -14.203125 4.734375 -14.078125 L 4.734375 -13.28125 C 4.734375 -13.21875 4.75 -13.175781 4.78125 -13.15625 C 4.820312 -13.132812 4.851562 -13.144531 4.875 -13.1875 C 5.664062 -14.195312 6.859375 -14.703125 8.453125 -14.703125 Z M 8.453125 -14.703125 "/></g></g></g><g fill="#a6a6a6" fill-opacity="1"><g transform="translate(240.685845, 312.262861)"><g><path d="M 9.140625 -12.671875 C 9.140625 -12.535156 9.101562 -12.429688 9.03125 -12.359375 C 8.957031 -12.285156 8.851562 -12.25 8.71875 -12.25 L 5.8125 -12.25 C 5.71875 -12.25 5.671875 -12.203125 5.671875 -12.109375 L 5.671875 -4.671875 C 5.671875 -3.859375 5.84375 -3.28125 6.1875 -2.9375 C 6.539062 -2.59375 7.109375 -2.421875 7.890625 -2.421875 L 8.578125 -2.421875 C 8.703125 -2.421875 8.800781 -2.378906 8.875 -2.296875 C 8.957031 -2.222656 9 -2.125 9 -2 L 9 -0.515625 C 9 -0.242188 8.859375 -0.09375 8.578125 -0.0625 L 7.40625 -0.03125 C 5.945312 -0.03125 4.851562 -0.285156 4.125 -0.796875 C 3.40625 -1.304688 3.046875 -2.265625 3.046875 -3.671875 L 3.046875 -12.109375 C 3.046875 -12.203125 3 -12.25 2.90625 -12.25 L 1.34375 -12.25 C 1.207031 -12.25 1.097656 -12.285156 1.015625 -12.359375 C 0.941406 -12.429688 0.90625 -12.535156 0.90625 -12.671875 L 0.90625 -14.078125 C 0.90625 -14.203125 0.941406 -14.300781 1.015625 -14.375 C 1.097656 -14.457031 1.207031 -14.5 1.34375 -14.5 L 2.90625 -14.5 C 3 -14.5 3.046875 -14.546875 3.046875 -14.640625 L 3.046875 -17.828125 C 3.046875 -17.960938 3.082031 -18.066406 3.15625 -18.140625 C 3.238281 -18.222656 3.34375 -18.265625 3.46875 -18.265625 L 5.234375 -18.265625 C 5.367188 -18.265625 5.472656 -18.222656 5.546875 -18.140625 C 5.628906 -18.066406 5.671875 -17.960938 5.671875 -17.828125 L 5.671875 -14.640625 C 5.671875 -14.546875 5.71875 -14.5 5.8125 -14.5 L 8.71875 -14.5 C 8.851562 -14.5 8.957031 -14.457031 9.03125 -14.375 C 9.101562 -14.300781 9.140625 -14.203125 9.140625 -14.078125 Z M 9.140625 -12.671875 "/></g></g></g><g fill="#a6a6a6" fill-opacity="1"><g transform="translate(253.415623, 312.262861)"><g><path d="M 3.59375 -16.65625 C 3.039062 -16.65625 2.585938 -16.820312 2.234375 -17.15625 C 1.878906 -17.488281 1.703125 -17.921875 1.703125 -18.453125 C 1.703125 -18.984375 1.878906 -19.414062 2.234375 -19.75 C 2.585938 -20.082031 3.039062 -20.25 3.59375 -20.25 C 4.144531 -20.25 4.585938 -20.082031 4.921875 -19.75 C 5.265625 -19.414062 5.4375 -18.984375 5.4375 -18.453125 C 5.4375 -17.921875 5.265625 -17.488281 4.921875 -17.15625 C 4.585938 -16.820312 4.144531 -16.65625 3.59375 -16.65625 Z M 2.65625 0 C 2.519531 0 2.410156 -0.0351562 2.328125 -0.109375 C 2.253906 -0.191406 2.21875 -0.296875 2.21875 -0.421875 L 2.21875 -14.078125 C 2.21875 -14.203125 2.253906 -14.300781 2.328125 -14.375 C 2.410156 -14.457031 2.519531 -14.5 2.65625 -14.5 L 4.53125 -14.5 C 4.664062 -14.5 4.769531 -14.457031 4.84375 -14.375 C 4.914062 -14.300781 4.953125 -14.203125 4.953125 -14.078125 L 4.953125 -0.421875 C 4.953125 -0.296875 4.914062 -0.191406 4.84375 -0.109375 C 4.769531 -0.0351562 4.664062 0 4.53125 0 Z M 2.65625 0 "/></g></g></g><g fill="#a6a6a6" fill-opacity="1"><g transform="translate(262.785175, 312.262861)"><g><path d="M 7.09375 0.171875 C 5.96875 0.171875 4.972656 0 4.109375 -0.34375 C 3.242188 -0.6875 2.570312 -1.15625 2.09375 -1.75 C 1.625 -2.351562 1.390625 -3.015625 1.390625 -3.734375 L 1.390625 -3.90625 C 1.390625 -4.039062 1.425781 -4.144531 1.5 -4.21875 C 1.582031 -4.289062 1.691406 -4.328125 1.828125 -4.328125 L 3.59375 -4.328125 C 3.71875 -4.328125 3.816406 -4.304688 3.890625 -4.265625 C 3.972656 -4.234375 4.015625 -4.1875 4.015625 -4.125 L 4.015625 -3.90625 C 4.015625 -3.375 4.300781 -2.90625 4.875 -2.5 C 5.457031 -2.101562 6.1875 -1.90625 7.0625 -1.90625 C 7.9375 -1.90625 8.640625 -2.085938 9.171875 -2.453125 C 9.703125 -2.828125 9.96875 -3.300781 9.96875 -3.875 C 9.96875 -4.425781 9.71875 -4.835938 9.21875 -5.109375 C 8.726562 -5.390625 7.9375 -5.679688 6.84375 -5.984375 C 5.757812 -6.285156 4.847656 -6.59375 4.109375 -6.90625 C 3.378906 -7.21875 2.765625 -7.660156 2.265625 -8.234375 C 1.765625 -8.816406 1.515625 -9.566406 1.515625 -10.484375 C 1.515625 -11.753906 2.007812 -12.765625 3 -13.515625 C 4 -14.265625 5.328125 -14.640625 6.984375 -14.640625 C 8.078125 -14.640625 9.046875 -14.460938 9.890625 -14.109375 C 10.742188 -13.765625 11.394531 -13.273438 11.84375 -12.640625 C 12.300781 -12.015625 12.53125 -11.316406 12.53125 -10.546875 C 12.53125 -10.429688 12.492188 -10.335938 12.421875 -10.265625 C 12.347656 -10.203125 12.242188 -10.171875 12.109375 -10.171875 L 10.390625 -10.171875 C 10.265625 -10.171875 10.160156 -10.1875 10.078125 -10.21875 C 10.003906 -10.257812 9.96875 -10.3125 9.96875 -10.375 L 9.96875 -10.546875 C 9.96875 -11.085938 9.695312 -11.539062 9.15625 -11.90625 C 8.613281 -12.28125 7.878906 -12.46875 6.953125 -12.46875 C 6.117188 -12.46875 5.4375 -12.304688 4.90625 -11.984375 C 4.382812 -11.660156 4.125 -11.226562 4.125 -10.6875 C 4.125 -10.132812 4.375 -9.710938 4.875 -9.421875 C 5.382812 -9.140625 6.203125 -8.835938 7.328125 -8.515625 C 8.421875 -8.210938 9.332031 -7.910156 10.0625 -7.609375 C 10.800781 -7.316406 11.425781 -6.878906 11.9375 -6.296875 C 12.445312 -5.722656 12.703125 -4.972656 12.703125 -4.046875 C 12.703125 -2.753906 12.191406 -1.726562 11.171875 -0.96875 C 10.160156 -0.207031 8.800781 0.171875 7.09375 0.171875 Z M 7.09375 0.171875 "/></g></g></g><g fill="#a6a6a6" fill-opacity="1"><g transform="translate(278.90365, 312.262861)"><g><path d="M 9.140625 -12.671875 C 9.140625 -12.535156 9.101562 -12.429688 9.03125 -12.359375 C 8.957031 -12.285156 8.851562 -12.25 8.71875 -12.25 L 5.8125 -12.25 C 5.71875 -12.25 5.671875 -12.203125 5.671875 -12.109375 L 5.671875 -4.671875 C 5.671875 -3.859375 5.84375 -3.28125 6.1875 -2.9375 C 6.539062 -2.59375 7.109375 -2.421875 7.890625 -2.421875 L 8.578125 -2.421875 C 8.703125 -2.421875 8.800781 -2.378906 8.875 -2.296875 C 8.957031 -2.222656 9 -2.125 9 -2 L 9 -0.515625 C 9 -0.242188 8.859375 -0.09375 8.578125 -0.0625 L 7.40625 -0.03125 C 5.945312 -0.03125 4.851562 -0.285156 4.125 -0.796875 C 3.40625 -1.304688 3.046875 -2.265625 3.046875 -3.671875 L 3.046875 -12.109375 C 3.046875 -12.203125 3 -12.25 2.90625 -12.25 L 1.34375 -12.25 C 1.207031 -12.25 1.097656 -12.285156 1.015625 -12.359375 C 0.941406 -12.429688 0.90625 -12.535156 0.90625 -12.671875 L 0.90625 -14.078125 C 0.90625 -14.203125 0.941406 -14.300781 1.015625 -14.375 C 1.097656 -14.457031 1.207031 -14.5 1.34375 -14.5 L 2.90625 -14.5 C 3 -14.5 3.046875 -14.546875 3.046875 -14.640625 L 3.046875 -17.828125 C 3.046875 -17.960938 3.082031 -18.066406 3.15625 -18.140625 C 3.238281 -18.222656 3.34375 -18.265625 3.46875 -18.265625 L 5.234375 -18.265625 C 5.367188 -18.265625 5.472656 -18.222656 5.546875 -18.140625 C 5.628906 -18.066406 5.671875 -17.960938 5.671875 -17.828125 L 5.671875 -14.640625 C 5.671875 -14.546875 5.71875 -14.5 5.8125 -14.5 L 8.71875 -14.5 C 8.851562 -14.5 8.957031 -14.457031 9.03125 -14.375 C 9.101562 -14.300781 9.140625 -14.203125 9.140625 -14.078125 Z M 9.140625 -12.671875 "/></g></g></g></svg>