<svg xmlns="http://www.w3.org/2000/svg" xmlns:xlink="http://www.w3.org/1999/xlink" width="500" zoomAndPan="magnify" viewBox="0 0 375 374.999991" height="500" preserveAspectRatio="xMidYMid meet" version="1.0"><defs><g/><clipPath id="77b7017a5b"><path d="M 141.585938 85.507812 L 220 85.507812 L 220 185 L 141.585938 185 Z M 141.585938 85.507812 " clip-rule="nonzero"/></clipPath><clipPath id="f0132dec7a"><path d="M 155 106 L 233.085938 106 L 233.085938 205.507812 L 155 205.507812 Z M 155 106 " clip-rule="nonzero"/></clipPath></defs><g clip-path="url(#77b7017a5b)"><path fill="#d9d9d9" d="M 186.863281 151.992188 L 173.433594 136.929688 L 214.015625 91.449219 L 219.359375 85.4375 L 178.632812 85.4375 L 177.550781 86.667969 L 150.398438 117.085938 L 148.230469 119.476562 L 150.398438 121.863281 L 163.828125 136.929688 L 143.828125 159.304688 L 141.660156 161.695312 L 143.828125 164.085938 L 159.351562 181.539062 L 162.023438 184.507812 L 164.695312 181.539062 L 186.792969 156.769531 L 188.957031 154.382812 L 186.792969 151.992188 Z M 203.328125 92.679688 L 168.667969 131.570312 L 157.910156 119.546875 L 181.882812 92.75 L 203.402344 92.75 Z M 179.355469 154.382812 L 162.023438 173.789062 L 151.265625 161.769531 L 168.59375 142.359375 Z M 179.355469 154.382812 " fill-opacity="1" fill-rule="evenodd"/></g><g clip-path="url(#f0132dec7a)"><path fill="#38b6ff" d="M 187.804688 139.027344 L 201.234375 154.089844 L 160.652344 199.570312 L 155.308594 205.582031 L 196.035156 205.582031 L 197.117188 204.351562 L 224.269531 173.933594 L 226.4375 171.542969 L 224.269531 169.15625 L 210.839844 154.089844 L 230.839844 131.714844 L 233.007812 129.324219 L 230.839844 126.933594 L 215.316406 109.480469 L 212.644531 106.511719 L 209.972656 109.480469 L 187.875 134.25 L 185.710938 136.636719 L 187.875 139.027344 Z M 171.339844 198.339844 L 206 159.449219 L 216.761719 171.472656 L 192.785156 198.269531 L 171.265625 198.269531 Z M 223.332031 129.324219 L 206 148.734375 L 195.242188 136.710938 L 212.570312 117.300781 Z M 223.332031 129.324219 " fill-opacity="1" fill-rule="evenodd"/></g><g fill="#38b6ff" fill-opacity="1"><g transform="translate(59.70779, 249.608832)"><g><path d="M 14.59375 -18.796875 L 14.296875 -14.390625 L 14.203125 -14.359375 C 13.460938 -15.472656 12.203125 -16.191406 10.421875 -16.515625 C 9.867188 -16.628906 9.332031 -16.6875 8.8125 -16.6875 C 8.300781 -16.6875 7.863281 -16.640625 7.5 -16.546875 C 7.132812 -16.453125 6.820312 -16.320312 6.5625 -16.15625 C 6.019531 -15.800781 5.75 -15.332031 5.75 -14.75 C 5.75 -13.988281 5.988281 -13.421875 6.46875 -13.046875 C 7.0625 -12.585938 8.050781 -12.265625 9.4375 -12.078125 C 10.820312 -11.890625 11.929688 -11.632812 12.765625 -11.3125 C 13.609375 -11 14.300781 -10.597656 14.84375 -10.109375 C 15.863281 -9.191406 16.375 -7.894531 16.375 -6.21875 C 16.375 -4.03125 15.546875 -2.34375 13.890625 -1.15625 C 12.472656 -0.132812 10.6875 0.375 8.53125 0.375 C 6.789062 0.375 5.070312 0.046875 3.375 -0.609375 C 2.820312 -0.828125 2.335938 -1.082031 1.921875 -1.375 L 2.078125 -6.375 L 2.140625 -6.421875 C 3.378906 -4.285156 5.410156 -3.21875 8.234375 -3.21875 C 10.234375 -3.21875 11.554688 -3.703125 12.203125 -4.671875 C 12.421875 -4.992188 12.53125 -5.359375 12.53125 -5.765625 C 12.53125 -6.171875 12.46875 -6.503906 12.34375 -6.765625 C 12.21875 -7.035156 12.003906 -7.265625 11.703125 -7.453125 C 11.117188 -7.828125 10.144531 -8.078125 8.78125 -8.203125 C 7.414062 -8.335938 6.296875 -8.582031 5.421875 -8.9375 C 4.554688 -9.300781 3.863281 -9.75 3.34375 -10.28125 C 2.40625 -11.238281 1.9375 -12.570312 1.9375 -14.28125 C 1.9375 -16.0625 2.5625 -17.5 3.8125 -18.59375 C 5.082031 -19.707031 6.789062 -20.265625 8.9375 -20.265625 C 11.082031 -20.265625 12.96875 -19.773438 14.59375 -18.796875 Z M 14.59375 -18.796875 "/></g></g></g><g fill="#38b6ff" fill-opacity="1"><g transform="translate(81.84126, 249.608832)"><g><path d="M 4.03125 0.125 C 3.164062 0.0390625 2.160156 0 1.015625 0 L -0.171875 0 L 6.34375 -18.234375 C 6.632812 -19.054688 6.78125 -19.535156 6.78125 -19.671875 C 6.78125 -19.804688 6.773438 -19.882812 6.765625 -19.90625 L 6.78125 -19.9375 C 7.425781 -19.914062 8.113281 -19.90625 8.84375 -19.90625 C 9.4375 -19.90625 10.15625 -19.910156 11 -19.921875 L 11.015625 -19.90625 C 10.992188 -19.863281 10.984375 -19.804688 10.984375 -19.734375 C 10.984375 -19.546875 11.132812 -19.039062 11.4375 -18.21875 L 18.078125 0.046875 C 17.878906 0.0351562 17.644531 0.03125 17.375 0.03125 C 17.375 0.03125 17.113281 0.0195312 16.59375 0 C 16.34375 0 16.117188 0 15.921875 0 L 13.59375 0 L 12.1875 -4.3125 L 5.4375 -4.3125 Z M 11.03125 -7.90625 L 8.765625 -14.859375 L 6.5625 -7.90625 Z M 11.03125 -7.90625 "/></g></g></g><g fill="#38b6ff" fill-opacity="1"><g transform="translate(104.034559, 249.608832)"><g><path d="M 13.0625 -8.609375 C 12.582031 -8.648438 11.960938 -8.671875 11.203125 -8.671875 L 6.671875 -8.671875 L 6.671875 0 L 2.578125 0 L 2.578125 -20 C 2.847656 -19.976562 3.15625 -19.960938 3.5 -19.953125 L 4.609375 -19.921875 C 5.367188 -19.910156 6.15625 -19.90625 6.96875 -19.90625 C 9.425781 -19.90625 11.769531 -19.941406 14 -20.015625 C 13.894531 -19.140625 13.84375 -17.96875 13.84375 -16.5 C 13.84375 -16.34375 13.851562 -16.222656 13.875 -16.140625 L 13.84375 -16.09375 C 13.3125 -16.25 12.570312 -16.328125 11.625 -16.328125 L 6.671875 -16.328125 L 6.671875 -12.203125 L 11.046875 -12.203125 C 12.140625 -12.203125 12.796875 -12.234375 13.015625 -12.296875 Z M 13.0625 -8.609375 "/></g></g></g><g fill="#38b6ff" fill-opacity="1"><g transform="translate(123.610312, 249.608832)"><g><path d="M 3.03125 -19.953125 C 4.03125 -19.921875 4.632812 -19.90625 4.84375 -19.90625 L 5.921875 -19.90625 C 6.453125 -19.90625 6.878906 -19.941406 7.203125 -20.015625 L 7.1875 0 L 3.03125 0 Z M 3.03125 -19.953125 "/></g></g></g><g fill="#38b6ff" fill-opacity="1"><g transform="translate(138.13045, 249.608832)"><g><path d="M 4.03125 0.125 C 3.164062 0.0390625 2.160156 0 1.015625 0 L -0.171875 0 L 6.34375 -18.234375 C 6.632812 -19.054688 6.78125 -19.535156 6.78125 -19.671875 C 6.78125 -19.804688 6.773438 -19.882812 6.765625 -19.90625 L 6.78125 -19.9375 C 7.425781 -19.914062 8.113281 -19.90625 8.84375 -19.90625 C 9.4375 -19.90625 10.15625 -19.910156 11 -19.921875 L 11.015625 -19.90625 C 10.992188 -19.863281 10.984375 -19.804688 10.984375 -19.734375 C 10.984375 -19.546875 11.132812 -19.039062 11.4375 -18.21875 L 18.078125 0.046875 C 17.878906 0.0351562 17.644531 0.03125 17.375 0.03125 C 17.375 0.03125 17.113281 0.0195312 16.59375 0 C 16.34375 0 16.117188 0 15.921875 0 L 13.59375 0 L 12.1875 -4.3125 L 5.4375 -4.3125 Z M 11.03125 -7.90625 L 8.765625 -14.859375 L 6.5625 -7.90625 Z M 11.03125 -7.90625 "/></g></g></g><g fill="#38b6ff" fill-opacity="1"><g transform="translate(160.323746, 249.608832)"><g/></g></g><g fill="#38b6ff" fill-opacity="1"><g transform="translate(174.769096, 249.608832)"><g><path d="M 12.578125 -3.59375 C 13.203125 -3.59375 13.632812 -3.648438 13.875 -3.765625 L 13.921875 -3.75 L 13.78125 0 L 2.578125 0 L 2.578125 -20 C 2.847656 -19.976562 3.144531 -19.960938 3.46875 -19.953125 L 4.515625 -19.921875 C 5.210938 -19.910156 5.972656 -19.90625 6.796875 -19.90625 C 9.078125 -19.90625 11.332031 -19.941406 13.5625 -20.015625 C 13.457031 -19.140625 13.40625 -17.96875 13.40625 -16.5 C 13.40625 -16.34375 13.414062 -16.222656 13.4375 -16.140625 L 13.40625 -16.09375 C 12.882812 -16.25 12.144531 -16.328125 11.1875 -16.328125 L 6.484375 -16.328125 L 6.484375 -12.5 L 10.03125 -12.5 C 11.125 -12.5 11.78125 -12.53125 12 -12.59375 L 12.046875 -8.90625 C 11.566406 -8.957031 10.945312 -8.984375 10.1875 -8.984375 L 6.484375 -8.984375 L 6.484375 -3.59375 Z M 12.578125 -3.59375 "/></g></g></g><g fill="#38b6ff" fill-opacity="1"><g transform="translate(194.404673, 249.608832)"><g><path d="M 11.484375 -20.265625 C 13.347656 -20.265625 14.941406 -19.941406 16.265625 -19.296875 L 16.265625 -14.71875 L 16.234375 -14.6875 C 15.671875 -15.550781 14.492188 -16.117188 12.703125 -16.390625 C 12.171875 -16.484375 11.5 -16.53125 10.6875 -16.53125 C 9.882812 -16.53125 9.09375 -16.378906 8.3125 -16.078125 C 7.539062 -15.773438 6.90625 -15.34375 6.40625 -14.78125 C 5.4375 -13.695312 4.953125 -12.144531 4.953125 -10.125 C 4.953125 -7.78125 5.566406 -6.035156 6.796875 -4.890625 C 7.804688 -3.929688 9.148438 -3.453125 10.828125 -3.453125 C 12.722656 -3.453125 14.257812 -3.859375 15.4375 -4.671875 C 15.863281 -4.960938 16.226562 -5.320312 16.53125 -5.75 L 16.578125 -5.71875 L 16.578125 -1.53125 C 15.046875 -0.257812 12.988281 0.375 10.40625 0.375 C 7.363281 0.375 4.984375 -0.59375 3.265625 -2.53125 C 1.609375 -4.375 0.78125 -6.816406 0.78125 -9.859375 C 0.78125 -13.078125 1.6875 -15.613281 3.5 -17.46875 C 5.332031 -19.332031 7.992188 -20.265625 11.484375 -20.265625 Z M 11.484375 -20.265625 "/></g></g></g><g fill="#38b6ff" fill-opacity="1"><g transform="translate(216.463353, 249.608832)"><g><path d="M 6.609375 0.09375 C 5.648438 0.03125 4.515625 0 3.203125 0 L 2.71875 0 L 2.71875 -19.96875 C 3.34375 -19.925781 3.785156 -19.90625 4.046875 -19.90625 L 4.65625 -19.90625 C 5.4375 -19.90625 6.085938 -19.941406 6.609375 -20.015625 L 6.609375 -12.046875 L 13.640625 -12.046875 L 13.640625 -19.96875 C 14.472656 -19.925781 15.28125 -19.90625 16.0625 -19.90625 C 16.84375 -19.90625 17.332031 -19.941406 17.53125 -20.015625 L 17.53125 0.09375 C 17.050781 0.03125 16.101562 0 14.6875 0 L 13.640625 0 L 13.640625 -8.453125 L 6.609375 -8.453125 Z M 6.609375 0.09375 "/></g></g></g><g fill="#38b6ff" fill-opacity="1"><g transform="translate(241.15454, 249.608832)"><g><path d="M 4.03125 0.125 C 3.164062 0.0390625 2.160156 0 1.015625 0 L -0.171875 0 L 6.34375 -18.234375 C 6.632812 -19.054688 6.78125 -19.535156 6.78125 -19.671875 C 6.78125 -19.804688 6.773438 -19.882812 6.765625 -19.90625 L 6.78125 -19.9375 C 7.425781 -19.914062 8.113281 -19.90625 8.84375 -19.90625 C 9.4375 -19.90625 10.15625 -19.910156 11 -19.921875 L 11.015625 -19.90625 C 10.992188 -19.863281 10.984375 -19.804688 10.984375 -19.734375 C 10.984375 -19.546875 11.132812 -19.039062 11.4375 -18.21875 L 18.078125 0.046875 C 17.878906 0.0351562 17.644531 0.03125 17.375 0.03125 C 17.375 0.03125 17.113281 0.0195312 16.59375 0 C 16.34375 0 16.117188 0 15.921875 0 L 13.59375 0 L 12.1875 -4.3125 L 5.4375 -4.3125 Z M 11.03125 -7.90625 L 8.765625 -14.859375 L 6.5625 -7.90625 Z M 11.03125 -7.90625 "/></g></g></g><g fill="#38b6ff" fill-opacity="1"><g transform="translate(263.347837, 249.608832)"><g><path d="M 9 -7.734375 C 8.707031 -7.710938 8.390625 -7.703125 8.046875 -7.703125 C 7.710938 -7.703125 7.207031 -7.726562 6.53125 -7.78125 L 6.53125 0 L 2.578125 0 L 2.578125 -20 C 3.972656 -20.175781 5.6875 -20.265625 7.71875 -20.265625 C 10.488281 -20.265625 12.554688 -19.753906 13.921875 -18.734375 C 15.285156 -17.710938 15.96875 -16.132812 15.96875 -14 C 15.96875 -12.34375 15.34375 -10.925781 14.09375 -9.75 C 13.6875 -9.375 13.21875 -9.046875 12.6875 -8.765625 L 15.734375 -2.328125 C 16.335938 -1.003906 16.796875 -0.21875 17.109375 0.03125 L 17.046875 0.109375 C 16.078125 -0.0546875 14.554688 -0.0507812 12.484375 0.125 Z M 8 -16.734375 C 7.488281 -16.734375 7 -16.710938 6.53125 -16.671875 L 6.53125 -10.953125 C 7.019531 -10.878906 7.59375 -10.84375 8.25 -10.84375 C 8.914062 -10.84375 9.472656 -10.898438 9.921875 -11.015625 C 10.367188 -11.128906 10.757812 -11.304688 11.09375 -11.546875 C 11.800781 -12.078125 12.15625 -12.867188 12.15625 -13.921875 C 12.15625 -14.984375 11.785156 -15.726562 11.046875 -16.15625 C 10.359375 -16.539062 9.34375 -16.734375 8 -16.734375 Z M 8 -16.734375 "/></g></g></g><g fill="#38b6ff" fill-opacity="1"><g transform="translate(285.481304, 249.608832)"><g><path d="M 3.03125 -19.953125 C 4.03125 -19.921875 4.632812 -19.90625 4.84375 -19.90625 L 5.921875 -19.90625 C 6.453125 -19.90625 6.878906 -19.941406 7.203125 -20.015625 L 7.1875 0 L 3.03125 0 Z M 3.03125 -19.953125 "/></g></g></g><g fill="#38b6ff" fill-opacity="1"><g transform="translate(300.001452, 249.608832)"><g><path d="M 13.0625 -8.609375 C 12.582031 -8.648438 11.960938 -8.671875 11.203125 -8.671875 L 6.671875 -8.671875 L 6.671875 0 L 2.578125 0 L 2.578125 -20 C 2.847656 -19.976562 3.15625 -19.960938 3.5 -19.953125 L 4.609375 -19.921875 C 5.367188 -19.910156 6.15625 -19.90625 6.96875 -19.90625 C 9.425781 -19.90625 11.769531 -19.941406 14 -20.015625 C 13.894531 -19.140625 13.84375 -17.96875 13.84375 -16.5 C 13.84375 -16.34375 13.851562 -16.222656 13.875 -16.140625 L 13.84375 -16.09375 C 13.3125 -16.25 12.570312 -16.328125 11.625 -16.328125 L 6.671875 -16.328125 L 6.671875 -12.203125 L 11.046875 -12.203125 C 12.140625 -12.203125 12.796875 -12.234375 13.015625 -12.296875 Z M 13.0625 -8.609375 "/></g></g></g><g fill="#d9d9d9" fill-opacity="1"><g transform="translate(99.657186, 272.711437)"><g><path d="M 3.828125 0.1875 C 2.992188 0.1875 2.207031 0.125 1.46875 0 L 1.46875 -10.34375 C 2.15625 -10.425781 2.945312 -10.46875 3.84375 -10.46875 C 4.738281 -10.46875 5.550781 -10.34375 6.28125 -10.09375 C 7.007812 -9.851562 7.617188 -9.507812 8.109375 -9.0625 C 9.097656 -8.15625 9.59375 -6.882812 9.59375 -5.25 C 9.59375 -3.414062 9.039062 -2.023438 7.9375 -1.078125 C 6.957031 -0.234375 5.585938 0.1875 3.828125 0.1875 Z M 3.484375 -1.6875 C 3.816406 -1.625 4.148438 -1.59375 4.484375 -1.59375 C 4.828125 -1.59375 5.191406 -1.660156 5.578125 -1.796875 C 5.960938 -1.929688 6.296875 -2.132812 6.578125 -2.40625 C 7.179688 -3 7.484375 -3.859375 7.484375 -4.984375 C 7.484375 -6.828125 6.8125 -7.957031 5.46875 -8.375 C 5.03125 -8.519531 4.519531 -8.59375 3.9375 -8.59375 L 3.71875 -8.59375 C 3.644531 -8.59375 3.566406 -8.585938 3.484375 -8.578125 Z M 3.484375 -1.6875 "/></g></g></g><g fill="#d9d9d9" fill-opacity="1"><g transform="translate(114.889096, 272.711437)"><g><path d="M 2.078125 0.0625 C 1.640625 0.0195312 1.125 0 0.53125 0 L -0.078125 0 L 3.28125 -9.421875 C 3.425781 -9.847656 3.5 -10.09375 3.5 -10.15625 C 3.5 -10.226562 3.5 -10.269531 3.5 -10.28125 L 3.5 -10.296875 C 3.832031 -10.285156 4.1875 -10.28125 4.5625 -10.28125 C 4.875 -10.28125 5.25 -10.285156 5.6875 -10.296875 L 5.6875 -10.28125 C 5.675781 -10.257812 5.671875 -10.226562 5.671875 -10.1875 C 5.671875 -10.09375 5.75 -9.832031 5.90625 -9.40625 L 9.34375 0.015625 C 9.238281 0.015625 9.113281 0.015625 8.96875 0.015625 C 8.96875 0.015625 8.835938 0.0078125 8.578125 0 C 8.441406 0 8.320312 0 8.21875 0 L 7.03125 0 L 6.296875 -2.21875 L 2.8125 -2.21875 Z M 5.703125 -4.078125 L 4.53125 -7.671875 L 3.390625 -4.078125 Z M 5.703125 -4.078125 "/></g></g></g><g fill="#d9d9d9" fill-opacity="1"><g transform="translate(128.83002, 272.711437)"><g><path d="M 5.03125 0.046875 C 4.789062 0.015625 4.15625 0 3.125 0 L 2.875 0 L 2.875 -8.546875 L 1.359375 -8.546875 C 0.898438 -8.546875 0.628906 -8.519531 0.546875 -8.46875 C 0.460938 -8.425781 0.398438 -8.390625 0.359375 -8.359375 L 0.328125 -8.359375 L 0.328125 -10.34375 L 0.359375 -10.359375 C 0.523438 -10.304688 0.984375 -10.28125 1.734375 -10.28125 L 6.578125 -10.28125 C 7.023438 -10.28125 7.289062 -10.300781 7.375 -10.34375 C 7.457031 -10.394531 7.523438 -10.4375 7.578125 -10.46875 L 7.59375 -10.46875 L 7.59375 -8.484375 L 7.578125 -8.46875 C 7.398438 -8.519531 6.941406 -8.546875 6.203125 -8.546875 L 5.03125 -8.546875 Z M 5.03125 0.046875 "/></g></g></g><g fill="#d9d9d9" fill-opacity="1"><g transform="translate(141.449027, 272.711437)"><g><path d="M 2.078125 0.0625 C 1.640625 0.0195312 1.125 0 0.53125 0 L -0.078125 0 L 3.28125 -9.421875 C 3.425781 -9.847656 3.5 -10.09375 3.5 -10.15625 C 3.5 -10.226562 3.5 -10.269531 3.5 -10.28125 L 3.5 -10.296875 C 3.832031 -10.285156 4.1875 -10.28125 4.5625 -10.28125 C 4.875 -10.28125 5.25 -10.285156 5.6875 -10.296875 L 5.6875 -10.28125 C 5.675781 -10.257812 5.671875 -10.226562 5.671875 -10.1875 C 5.671875 -10.09375 5.75 -9.832031 5.90625 -9.40625 L 9.34375 0.015625 C 9.238281 0.015625 9.113281 0.015625 8.96875 0.015625 C 8.96875 0.015625 8.835938 0.0078125 8.578125 0 C 8.441406 0 8.320312 0 8.21875 0 L 7.03125 0 L 6.296875 -2.21875 L 2.8125 -2.21875 Z M 5.703125 -4.078125 L 4.53125 -7.671875 L 3.390625 -4.078125 Z M 5.703125 -4.078125 "/></g></g></g><g fill="#d9d9d9" fill-opacity="1"><g transform="translate(155.38995, 272.711437)"><g/></g></g><g fill="#d9d9d9" fill-opacity="1"><g transform="translate(165.326482, 272.711437)"><g><path d="M 7.53125 -9.703125 L 7.390625 -7.4375 L 7.328125 -7.421875 C 6.953125 -7.992188 6.304688 -8.363281 5.390625 -8.53125 C 5.097656 -8.59375 4.816406 -8.625 4.546875 -8.625 C 4.285156 -8.625 4.0625 -8.597656 3.875 -8.546875 C 3.6875 -8.503906 3.523438 -8.4375 3.390625 -8.34375 C 3.109375 -8.15625 2.96875 -7.914062 2.96875 -7.625 C 2.96875 -7.226562 3.09375 -6.929688 3.34375 -6.734375 C 3.644531 -6.503906 4.15625 -6.335938 4.875 -6.234375 C 5.59375 -6.140625 6.164062 -6.007812 6.59375 -5.84375 C 7.03125 -5.6875 7.390625 -5.476562 7.671875 -5.21875 C 8.191406 -4.75 8.453125 -4.082031 8.453125 -3.21875 C 8.453125 -2.082031 8.023438 -1.207031 7.171875 -0.59375 C 6.441406 -0.0703125 5.519531 0.1875 4.40625 0.1875 C 3.507812 0.1875 2.625 0.0195312 1.75 -0.3125 C 1.457031 -0.425781 1.203125 -0.5625 0.984375 -0.71875 L 1.078125 -3.296875 L 1.109375 -3.3125 C 1.742188 -2.207031 2.789062 -1.65625 4.25 -1.65625 C 5.28125 -1.65625 5.96875 -1.90625 6.3125 -2.40625 C 6.414062 -2.582031 6.46875 -2.773438 6.46875 -2.984375 C 6.46875 -3.191406 6.4375 -3.363281 6.375 -3.5 C 6.3125 -3.632812 6.203125 -3.75 6.046875 -3.84375 C 5.742188 -4.039062 5.238281 -4.171875 4.53125 -4.234375 C 3.832031 -4.304688 3.257812 -4.4375 2.8125 -4.625 C 2.363281 -4.8125 2.003906 -5.039062 1.734375 -5.3125 C 1.242188 -5.800781 1 -6.488281 1 -7.375 C 1 -8.289062 1.320312 -9.035156 1.96875 -9.609375 C 2.625 -10.179688 3.503906 -10.46875 4.609375 -10.46875 C 5.722656 -10.46875 6.695312 -10.210938 7.53125 -9.703125 Z M 7.53125 -9.703125 "/></g></g></g><g fill="#d9d9d9" fill-opacity="1"><g transform="translate(179.236483, 272.711437)"><g><path d="M 5.9375 -10.46875 C 6.894531 -10.46875 7.71875 -10.300781 8.40625 -9.96875 L 8.40625 -7.609375 L 8.390625 -7.59375 C 8.097656 -8.03125 7.488281 -8.320312 6.5625 -8.46875 C 6.289062 -8.519531 5.945312 -8.546875 5.53125 -8.546875 C 5.113281 -8.546875 4.703125 -8.460938 4.296875 -8.296875 C 3.890625 -8.140625 3.5625 -7.921875 3.3125 -7.640625 C 2.8125 -7.078125 2.5625 -6.273438 2.5625 -5.234375 C 2.5625 -4.023438 2.878906 -3.125 3.515625 -2.53125 C 4.035156 -2.03125 4.726562 -1.78125 5.59375 -1.78125 C 6.570312 -1.78125 7.363281 -1.988281 7.96875 -2.40625 C 8.195312 -2.5625 8.390625 -2.75 8.546875 -2.96875 L 8.5625 -2.953125 L 8.5625 -0.78125 C 7.769531 -0.132812 6.707031 0.1875 5.375 0.1875 C 3.800781 0.1875 2.570312 -0.3125 1.6875 -1.3125 C 0.832031 -2.257812 0.40625 -3.519531 0.40625 -5.09375 C 0.40625 -6.757812 0.875 -8.070312 1.8125 -9.03125 C 2.757812 -9.988281 4.132812 -10.46875 5.9375 -10.46875 Z M 5.9375 -10.46875 "/></g></g></g><g fill="#d9d9d9" fill-opacity="1"><g transform="translate(193.107826, 272.711437)"><g><path d="M 1.5625 -10.3125 C 2.082031 -10.289062 2.394531 -10.28125 2.5 -10.28125 L 3.0625 -10.28125 C 3.332031 -10.28125 3.550781 -10.300781 3.71875 -10.34375 L 3.703125 0 L 1.5625 0 Z M 1.5625 -10.3125 "/></g></g></g><g fill="#d9d9d9" fill-opacity="1"><g transform="translate(203.08301, 272.711437)"><g><path d="M 6.5 -1.859375 C 6.820312 -1.859375 7.046875 -1.890625 7.171875 -1.953125 L 7.1875 -1.9375 L 7.125 0 L 1.328125 0 L 1.328125 -10.328125 C 1.460938 -10.316406 1.617188 -10.3125 1.796875 -10.3125 L 2.328125 -10.296875 C 2.691406 -10.285156 3.085938 -10.28125 3.515625 -10.28125 C 4.691406 -10.28125 5.859375 -10.300781 7.015625 -10.34375 C 6.953125 -9.882812 6.921875 -9.28125 6.921875 -8.53125 C 6.921875 -8.445312 6.925781 -8.382812 6.9375 -8.34375 L 6.921875 -8.3125 C 6.648438 -8.394531 6.269531 -8.4375 5.78125 -8.4375 L 3.34375 -8.4375 L 3.34375 -6.46875 L 5.171875 -6.46875 C 5.742188 -6.46875 6.085938 -6.476562 6.203125 -6.5 L 6.21875 -4.59375 C 5.96875 -4.625 5.648438 -4.640625 5.265625 -4.640625 L 3.34375 -4.640625 L 3.34375 -1.859375 Z M 6.5 -1.859375 "/></g></g></g><g fill="#d9d9d9" fill-opacity="1"><g transform="translate(215.702021, 272.711437)"><g><path d="M 1.40625 0 C 1.425781 -0.175781 1.4375 -0.367188 1.4375 -0.578125 L 1.4375 -10.28125 L 2.984375 -10.28125 L 7.09375 -3.828125 L 7.09375 -9.75 C 7.09375 -10.03125 7.066406 -10.207031 7.015625 -10.28125 L 9.09375 -10.28125 C 9.070312 -10.070312 9.0625 -9.84375 9.0625 -9.59375 L 9.0625 0 L 7.453125 0 L 3.421875 -6.1875 L 3.421875 0 Z M 1.40625 0 "/></g></g></g><g fill="#d9d9d9" fill-opacity="1"><g transform="translate(230.895287, 272.711437)"><g><path d="M 5.03125 0.046875 C 4.789062 0.015625 4.15625 0 3.125 0 L 2.875 0 L 2.875 -8.546875 L 1.359375 -8.546875 C 0.898438 -8.546875 0.628906 -8.519531 0.546875 -8.46875 C 0.460938 -8.425781 0.398438 -8.390625 0.359375 -8.359375 L 0.328125 -8.359375 L 0.328125 -10.34375 L 0.359375 -10.359375 C 0.523438 -10.304688 0.984375 -10.28125 1.734375 -10.28125 L 6.578125 -10.28125 C 7.023438 -10.28125 7.289062 -10.300781 7.375 -10.34375 C 7.457031 -10.394531 7.523438 -10.4375 7.578125 -10.46875 L 7.59375 -10.46875 L 7.59375 -8.484375 L 7.578125 -8.46875 C 7.398438 -8.519531 6.941406 -8.546875 6.203125 -8.546875 L 5.03125 -8.546875 Z M 5.03125 0.046875 "/></g></g></g><g fill="#d9d9d9" fill-opacity="1"><g transform="translate(243.514297, 272.711437)"><g><path d="M 1.5625 -10.3125 C 2.082031 -10.289062 2.394531 -10.28125 2.5 -10.28125 L 3.0625 -10.28125 C 3.332031 -10.28125 3.550781 -10.300781 3.71875 -10.34375 L 3.703125 0 L 1.5625 0 Z M 1.5625 -10.3125 "/></g></g></g><g fill="#d9d9d9" fill-opacity="1"><g transform="translate(253.489482, 272.711437)"><g><path d="M 7.53125 -9.703125 L 7.390625 -7.4375 L 7.328125 -7.421875 C 6.953125 -7.992188 6.304688 -8.363281 5.390625 -8.53125 C 5.097656 -8.59375 4.816406 -8.625 4.546875 -8.625 C 4.285156 -8.625 4.0625 -8.597656 3.875 -8.546875 C 3.6875 -8.503906 3.523438 -8.4375 3.390625 -8.34375 C 3.109375 -8.15625 2.96875 -7.914062 2.96875 -7.625 C 2.96875 -7.226562 3.09375 -6.929688 3.34375 -6.734375 C 3.644531 -6.503906 4.15625 -6.335938 4.875 -6.234375 C 5.59375 -6.140625 6.164062 -6.007812 6.59375 -5.84375 C 7.03125 -5.6875 7.390625 -5.476562 7.671875 -5.21875 C 8.191406 -4.75 8.453125 -4.082031 8.453125 -3.21875 C 8.453125 -2.082031 8.023438 -1.207031 7.171875 -0.59375 C 6.441406 -0.0703125 5.519531 0.1875 4.40625 0.1875 C 3.507812 0.1875 2.625 0.0195312 1.75 -0.3125 C 1.457031 -0.425781 1.203125 -0.5625 0.984375 -0.71875 L 1.078125 -3.296875 L 1.109375 -3.3125 C 1.742188 -2.207031 2.789062 -1.65625 4.25 -1.65625 C 5.28125 -1.65625 5.96875 -1.90625 6.3125 -2.40625 C 6.414062 -2.582031 6.46875 -2.773438 6.46875 -2.984375 C 6.46875 -3.191406 6.4375 -3.363281 6.375 -3.5 C 6.3125 -3.632812 6.203125 -3.75 6.046875 -3.84375 C 5.742188 -4.039062 5.238281 -4.171875 4.53125 -4.234375 C 3.832031 -4.304688 3.257812 -4.4375 2.8125 -4.625 C 2.363281 -4.8125 2.003906 -5.039062 1.734375 -5.3125 C 1.242188 -5.800781 1 -6.488281 1 -7.375 C 1 -8.289062 1.320312 -9.035156 1.96875 -9.609375 C 2.625 -10.179688 3.503906 -10.46875 4.609375 -10.46875 C 5.722656 -10.46875 6.695312 -10.210938 7.53125 -9.703125 Z M 7.53125 -9.703125 "/></g></g></g><g fill="#d9d9d9" fill-opacity="1"><g transform="translate(267.399489, 272.711437)"><g><path d="M 5.03125 0.046875 C 4.789062 0.015625 4.15625 0 3.125 0 L 2.875 0 L 2.875 -8.546875 L 1.359375 -8.546875 C 0.898438 -8.546875 0.628906 -8.519531 0.546875 -8.46875 C 0.460938 -8.425781 0.398438 -8.390625 0.359375 -8.359375 L 0.328125 -8.359375 L 0.328125 -10.34375 L 0.359375 -10.359375 C 0.523438 -10.304688 0.984375 -10.28125 1.734375 -10.28125 L 6.578125 -10.28125 C 7.023438 -10.28125 7.289062 -10.300781 7.375 -10.34375 C 7.457031 -10.394531 7.523438 -10.4375 7.578125 -10.46875 L 7.59375 -10.46875 L 7.59375 -8.484375 L 7.578125 -8.46875 C 7.398438 -8.519531 6.941406 -8.546875 6.203125 -8.546875 L 5.03125 -8.546875 Z M 5.03125 0.046875 "/></g></g></g></svg>