<svg xmlns="http://www.w3.org/2000/svg" xmlns:xlink="http://www.w3.org/1999/xlink" width="500" zoomAndPan="magnify" viewBox="0 0 375 374.999991" height="500" preserveAspectRatio="xMidYMid meet" version="1.0"><defs><g/><clipPath id="b44c2ca8eb"><path d="M 141.585938 11.53125 L 220 11.53125 L 220 111 L 141.585938 111 Z M 141.585938 11.53125 " clip-rule="nonzero"/></clipPath><clipPath id="e5cc3d4d41"><path d="M 155 32 L 233.085938 32 L 233.085938 131.53125 L 155 131.53125 Z M 155 32 " clip-rule="nonzero"/></clipPath></defs><g clip-path="url(#b44c2ca8eb)"><path fill="#d9d9d9" d="M 186.863281 78.011719 L 173.433594 62.949219 L 214.015625 17.46875 L 219.359375 11.457031 L 178.632812 11.457031 L 177.550781 12.6875 L 150.398438 43.105469 L 148.230469 45.496094 L 150.398438 47.886719 L 163.828125 62.949219 L 143.828125 85.324219 L 141.660156 87.714844 L 143.828125 90.105469 L 159.351562 107.558594 L 162.023438 110.527344 L 164.695312 107.558594 L 186.792969 82.792969 L 188.957031 80.402344 L 186.792969 78.011719 Z M 203.328125 18.699219 L 168.667969 57.589844 L 157.910156 45.566406 L 181.882812 18.773438 L 203.402344 18.773438 Z M 179.355469 80.402344 L 162.023438 99.808594 L 151.265625 87.789062 L 168.59375 68.378906 Z M 179.355469 80.402344 " fill-opacity="1" fill-rule="evenodd"/></g><g clip-path="url(#e5cc3d4d41)"><path fill="#38b6ff" d="M 187.804688 65.046875 L 201.234375 80.113281 L 160.652344 125.589844 L 155.308594 131.601562 L 196.035156 131.601562 L 197.117188 130.371094 L 224.269531 99.953125 L 226.4375 97.566406 L 224.269531 95.175781 L 210.839844 80.113281 L 230.839844 57.734375 L 233.007812 55.34375 L 230.839844 52.953125 L 215.316406 35.5 L 212.644531 32.53125 L 209.972656 35.5 L 187.875 60.269531 L 185.710938 62.660156 L 187.875 65.046875 Z M 171.339844 124.359375 L 206 85.472656 L 216.761719 97.492188 L 192.785156 124.289062 L 171.265625 124.289062 Z M 223.332031 55.34375 L 206 74.753906 L 195.242188 62.730469 L 212.570312 43.324219 Z M 223.332031 55.34375 " fill-opacity="1" fill-rule="evenodd"/></g><g fill="#38b6ff" fill-opacity="1"><g transform="translate(63.903414, 167.433798)"><g><path d="M 14.109375 -18.171875 L 13.828125 -13.921875 L 13.734375 -13.890625 C 13.015625 -14.960938 11.796875 -15.65625 10.078125 -15.96875 C 9.535156 -16.070312 9.015625 -16.125 8.515625 -16.125 C 8.023438 -16.125 7.601562 -16.082031 7.25 -16 C 6.894531 -15.914062 6.59375 -15.789062 6.34375 -15.625 C 5.820312 -15.28125 5.5625 -14.828125 5.5625 -14.265625 C 5.5625 -13.523438 5.789062 -12.972656 6.25 -12.609375 C 6.820312 -12.171875 7.78125 -11.859375 9.125 -11.671875 C 10.46875 -11.492188 11.539062 -11.25 12.34375 -10.9375 C 13.15625 -10.632812 13.820312 -10.25 14.34375 -9.78125 C 15.332031 -8.894531 15.828125 -7.640625 15.828125 -6.015625 C 15.828125 -3.890625 15.023438 -2.253906 13.421875 -1.109375 C 12.054688 -0.128906 10.332031 0.359375 8.25 0.359375 C 6.570312 0.359375 4.910156 0.0390625 3.265625 -0.59375 C 2.722656 -0.800781 2.253906 -1.046875 1.859375 -1.328125 L 2.015625 -6.15625 L 2.0625 -6.203125 C 3.257812 -4.140625 5.222656 -3.109375 7.953125 -3.109375 C 9.890625 -3.109375 11.171875 -3.578125 11.796875 -4.515625 C 12.015625 -4.828125 12.125 -5.175781 12.125 -5.5625 C 12.125 -5.957031 12.0625 -6.28125 11.9375 -6.53125 C 11.8125 -6.789062 11.601562 -7.015625 11.3125 -7.203125 C 10.75 -7.566406 9.804688 -7.8125 8.484375 -7.9375 C 7.171875 -8.0625 6.09375 -8.296875 5.25 -8.640625 C 4.414062 -8.992188 3.742188 -9.425781 3.234375 -9.9375 C 2.328125 -10.863281 1.875 -12.15625 1.875 -13.8125 C 1.875 -15.53125 2.476562 -16.921875 3.6875 -17.984375 C 4.914062 -19.054688 6.566406 -19.59375 8.640625 -19.59375 C 10.722656 -19.59375 12.546875 -19.117188 14.109375 -18.171875 Z M 14.109375 -18.171875 "/></g></g></g><g fill="#38b6ff" fill-opacity="1"><g transform="translate(85.309818, 167.433798)"><g><path d="M 3.890625 0.109375 C 3.054688 0.0351562 2.085938 0 0.984375 0 L -0.15625 0 L 6.140625 -17.640625 C 6.410156 -18.421875 6.546875 -18.875 6.546875 -19 C 6.546875 -19.132812 6.539062 -19.21875 6.53125 -19.25 L 6.546875 -19.28125 C 7.179688 -19.25 7.847656 -19.234375 8.546875 -19.234375 C 9.128906 -19.234375 9.820312 -19.242188 10.625 -19.265625 L 10.640625 -19.234375 C 10.628906 -19.203125 10.625 -19.148438 10.625 -19.078125 C 10.625 -18.898438 10.765625 -18.414062 11.046875 -17.625 L 17.46875 0.046875 C 17.28125 0.0351562 17.054688 0.03125 16.796875 0.03125 C 16.796875 0.03125 16.546875 0.0195312 16.046875 0 C 15.804688 0 15.585938 0 15.390625 0 L 13.15625 0 L 11.796875 -4.171875 L 5.25 -4.171875 Z M 10.65625 -7.640625 L 8.484375 -14.359375 L 6.34375 -7.640625 Z M 10.65625 -7.640625 "/></g></g></g><g fill="#38b6ff" fill-opacity="1"><g transform="translate(106.774083, 167.433798)"><g><path d="M 12.625 -8.3125 C 12.164062 -8.363281 11.566406 -8.390625 10.828125 -8.390625 L 6.453125 -8.390625 L 6.453125 0 L 2.484375 0 L 2.484375 -19.34375 C 2.742188 -19.320312 3.046875 -19.304688 3.390625 -19.296875 L 4.453125 -19.265625 C 5.191406 -19.242188 5.953125 -19.234375 6.734375 -19.234375 C 9.109375 -19.234375 11.378906 -19.273438 13.546875 -19.359375 C 13.429688 -18.503906 13.375 -17.367188 13.375 -15.953125 C 13.375 -15.796875 13.382812 -15.679688 13.40625 -15.609375 L 13.375 -15.5625 C 12.863281 -15.707031 12.148438 -15.78125 11.234375 -15.78125 L 6.453125 -15.78125 L 6.453125 -11.796875 L 10.671875 -11.796875 C 11.734375 -11.796875 12.367188 -11.828125 12.578125 -11.890625 Z M 12.625 -8.3125 "/></g></g></g><g fill="#38b6ff" fill-opacity="1"><g transform="translate(125.706918, 167.433798)"><g><path d="M 2.9375 -19.296875 C 3.90625 -19.253906 4.488281 -19.234375 4.6875 -19.234375 L 5.734375 -19.234375 C 6.242188 -19.234375 6.648438 -19.273438 6.953125 -19.359375 L 6.9375 0 L 2.9375 0 Z M 2.9375 -19.296875 "/></g></g></g><g fill="#38b6ff" fill-opacity="1"><g transform="translate(139.750466, 167.433798)"><g><path d="M 3.890625 0.109375 C 3.054688 0.0351562 2.085938 0 0.984375 0 L -0.15625 0 L 6.140625 -17.640625 C 6.410156 -18.421875 6.546875 -18.875 6.546875 -19 C 6.546875 -19.132812 6.539062 -19.21875 6.53125 -19.25 L 6.546875 -19.28125 C 7.179688 -19.25 7.847656 -19.234375 8.546875 -19.234375 C 9.128906 -19.234375 9.820312 -19.242188 10.625 -19.265625 L 10.640625 -19.234375 C 10.628906 -19.203125 10.625 -19.148438 10.625 -19.078125 C 10.625 -18.898438 10.765625 -18.414062 11.046875 -17.625 L 17.46875 0.046875 C 17.28125 0.0351562 17.054688 0.03125 16.796875 0.03125 C 16.796875 0.03125 16.546875 0.0195312 16.046875 0 C 15.804688 0 15.585938 0 15.390625 0 L 13.15625 0 L 11.796875 -4.171875 L 5.25 -4.171875 Z M 10.65625 -7.640625 L 8.484375 -14.359375 L 6.34375 -7.640625 Z M 10.65625 -7.640625 "/></g></g></g><g fill="#38b6ff" fill-opacity="1"><g transform="translate(161.214728, 167.433798)"><g/></g></g><g fill="#38b6ff" fill-opacity="1"><g transform="translate(175.18595, 167.433798)"><g><path d="M 12.171875 -3.46875 C 12.765625 -3.46875 13.175781 -3.523438 13.40625 -3.640625 L 13.46875 -3.625 L 13.328125 0 L 2.484375 0 L 2.484375 -19.34375 C 2.742188 -19.320312 3.035156 -19.304688 3.359375 -19.296875 L 4.375 -19.265625 C 5.039062 -19.242188 5.769531 -19.234375 6.5625 -19.234375 C 8.769531 -19.234375 10.957031 -19.273438 13.125 -19.359375 C 13.019531 -18.503906 12.96875 -17.367188 12.96875 -15.953125 C 12.96875 -15.796875 12.972656 -15.679688 12.984375 -15.609375 L 12.96875 -15.5625 C 12.457031 -15.707031 11.738281 -15.78125 10.8125 -15.78125 L 6.265625 -15.78125 L 6.265625 -12.09375 L 9.6875 -12.09375 C 10.75 -12.09375 11.382812 -12.125 11.59375 -12.1875 L 11.640625 -8.609375 C 11.179688 -8.648438 10.582031 -8.671875 9.84375 -8.671875 L 6.265625 -8.671875 L 6.265625 -3.46875 Z M 12.171875 -3.46875 "/></g></g></g><g fill="#38b6ff" fill-opacity="1"><g transform="translate(194.176641, 167.433798)"><g><path d="M 11.109375 -19.59375 C 12.910156 -19.59375 14.445312 -19.28125 15.71875 -18.65625 L 15.71875 -14.234375 L 15.6875 -14.203125 C 15.15625 -15.035156 14.019531 -15.585938 12.28125 -15.859375 C 11.769531 -15.941406 11.125 -15.984375 10.34375 -15.984375 C 9.5625 -15.984375 8.796875 -15.835938 8.046875 -15.546875 C 7.296875 -15.253906 6.675781 -14.835938 6.1875 -14.296875 C 5.25 -13.242188 4.78125 -11.742188 4.78125 -9.796875 C 4.78125 -7.523438 5.375 -5.835938 6.5625 -4.734375 C 7.550781 -3.804688 8.851562 -3.34375 10.46875 -3.34375 C 12.300781 -3.34375 13.785156 -3.734375 14.921875 -4.515625 C 15.335938 -4.796875 15.691406 -5.144531 15.984375 -5.5625 L 16.03125 -5.53125 L 16.03125 -1.46875 C 14.550781 -0.25 12.5625 0.359375 10.0625 0.359375 C 7.125 0.359375 4.820312 -0.570312 3.15625 -2.4375 C 1.550781 -4.226562 0.75 -6.59375 0.75 -9.53125 C 0.75 -12.644531 1.628906 -15.097656 3.390625 -16.890625 C 5.160156 -18.691406 7.734375 -19.59375 11.109375 -19.59375 Z M 11.109375 -19.59375 "/></g></g></g><g fill="#38b6ff" fill-opacity="1"><g transform="translate(215.510715, 167.433798)"><g><path d="M 6.390625 0.09375 C 5.460938 0.03125 4.363281 0 3.09375 0 L 2.625 0 L 2.625 -19.3125 C 3.226562 -19.257812 3.65625 -19.234375 3.90625 -19.234375 L 4.5 -19.234375 C 5.257812 -19.234375 5.890625 -19.273438 6.390625 -19.359375 L 6.390625 -11.640625 L 13.1875 -11.640625 L 13.1875 -19.3125 C 13.988281 -19.257812 14.769531 -19.234375 15.53125 -19.234375 C 16.289062 -19.234375 16.765625 -19.273438 16.953125 -19.359375 L 16.953125 0.09375 C 16.492188 0.03125 15.578125 0 14.203125 0 L 13.1875 0 L 13.1875 -8.171875 L 6.390625 -8.171875 Z M 6.390625 0.09375 "/></g></g></g><g fill="#38b6ff" fill-opacity="1"><g transform="translate(239.390688, 167.433798)"><g><path d="M 3.890625 0.109375 C 3.054688 0.0351562 2.085938 0 0.984375 0 L -0.15625 0 L 6.140625 -17.640625 C 6.410156 -18.421875 6.546875 -18.875 6.546875 -19 C 6.546875 -19.132812 6.539062 -19.21875 6.53125 -19.25 L 6.546875 -19.28125 C 7.179688 -19.25 7.847656 -19.234375 8.546875 -19.234375 C 9.128906 -19.234375 9.820312 -19.242188 10.625 -19.265625 L 10.640625 -19.234375 C 10.628906 -19.203125 10.625 -19.148438 10.625 -19.078125 C 10.625 -18.898438 10.765625 -18.414062 11.046875 -17.625 L 17.46875 0.046875 C 17.28125 0.0351562 17.054688 0.03125 16.796875 0.03125 C 16.796875 0.03125 16.546875 0.0195312 16.046875 0 C 15.804688 0 15.585938 0 15.390625 0 L 13.15625 0 L 11.796875 -4.171875 L 5.25 -4.171875 Z M 10.65625 -7.640625 L 8.484375 -14.359375 L 6.34375 -7.640625 Z M 10.65625 -7.640625 "/></g></g></g><g fill="#38b6ff" fill-opacity="1"><g transform="translate(260.854962, 167.433798)"><g><path d="M 8.703125 -7.484375 C 8.421875 -7.460938 8.113281 -7.453125 7.78125 -7.453125 C 7.457031 -7.453125 6.972656 -7.472656 6.328125 -7.515625 L 6.328125 0 L 2.484375 0 L 2.484375 -19.34375 C 3.835938 -19.507812 5.5 -19.59375 7.46875 -19.59375 C 10.144531 -19.59375 12.140625 -19.097656 13.453125 -18.109375 C 14.773438 -17.128906 15.4375 -15.609375 15.4375 -13.546875 C 15.4375 -11.941406 14.832031 -10.570312 13.625 -9.4375 C 13.226562 -9.0625 12.773438 -8.742188 12.265625 -8.484375 L 15.21875 -2.25 C 15.789062 -0.96875 16.234375 -0.207031 16.546875 0.03125 L 16.46875 0.09375 C 15.539062 -0.0507812 14.070312 -0.046875 12.0625 0.109375 Z M 7.734375 -16.1875 C 7.242188 -16.1875 6.773438 -16.160156 6.328125 -16.109375 L 6.328125 -10.59375 C 6.796875 -10.519531 7.347656 -10.484375 7.984375 -10.484375 C 8.617188 -10.484375 9.148438 -10.535156 9.578125 -10.640625 C 10.015625 -10.753906 10.394531 -10.929688 10.71875 -11.171875 C 11.40625 -11.679688 11.75 -12.445312 11.75 -13.46875 C 11.75 -14.488281 11.390625 -15.207031 10.671875 -15.625 C 10.003906 -16 9.023438 -16.1875 7.734375 -16.1875 Z M 7.734375 -16.1875 "/></g></g></g><g fill="#38b6ff" fill-opacity="1"><g transform="translate(282.261364, 167.433798)"><g><path d="M 2.9375 -19.296875 C 3.90625 -19.253906 4.488281 -19.234375 4.6875 -19.234375 L 5.734375 -19.234375 C 6.242188 -19.234375 6.648438 -19.273438 6.953125 -19.359375 L 6.9375 0 L 2.9375 0 Z M 2.9375 -19.296875 "/></g></g></g><g fill="#38b6ff" fill-opacity="1"><g transform="translate(296.304911, 167.433798)"><g><path d="M 12.625 -8.3125 C 12.164062 -8.363281 11.566406 -8.390625 10.828125 -8.390625 L 6.453125 -8.390625 L 6.453125 0 L 2.484375 0 L 2.484375 -19.34375 C 2.742188 -19.320312 3.046875 -19.304688 3.390625 -19.296875 L 4.453125 -19.265625 C 5.191406 -19.242188 5.953125 -19.234375 6.734375 -19.234375 C 9.109375 -19.234375 11.378906 -19.273438 13.546875 -19.359375 C 13.429688 -18.503906 13.375 -17.367188 13.375 -15.953125 C 13.375 -15.796875 13.382812 -15.679688 13.40625 -15.609375 L 13.375 -15.5625 C 12.863281 -15.707031 12.148438 -15.78125 11.234375 -15.78125 L 6.453125 -15.78125 L 6.453125 -11.796875 L 10.671875 -11.796875 C 11.734375 -11.796875 12.367188 -11.828125 12.578125 -11.890625 Z M 12.625 -8.3125 "/></g></g></g><g fill="#d9d9d9" fill-opacity="1"><g transform="translate(89.368125, 190.636394)"><g><path d="M 3.828125 0.1875 C 2.992188 0.1875 2.207031 0.125 1.46875 0 L 1.46875 -10.34375 C 2.15625 -10.425781 2.945312 -10.46875 3.84375 -10.46875 C 4.738281 -10.46875 5.550781 -10.34375 6.28125 -10.09375 C 7.007812 -9.851562 7.617188 -9.507812 8.109375 -9.0625 C 9.097656 -8.15625 9.59375 -6.882812 9.59375 -5.25 C 9.59375 -3.414062 9.039062 -2.023438 7.9375 -1.078125 C 6.957031 -0.234375 5.585938 0.1875 3.828125 0.1875 Z M 3.484375 -1.6875 C 3.816406 -1.625 4.148438 -1.59375 4.484375 -1.59375 C 4.828125 -1.59375 5.191406 -1.660156 5.578125 -1.796875 C 5.960938 -1.929688 6.296875 -2.132812 6.578125 -2.40625 C 7.179688 -3 7.484375 -3.859375 7.484375 -4.984375 C 7.484375 -6.828125 6.8125 -7.957031 5.46875 -8.375 C 5.03125 -8.519531 4.519531 -8.59375 3.9375 -8.59375 L 3.71875 -8.59375 C 3.644531 -8.59375 3.566406 -8.585938 3.484375 -8.578125 Z M 3.484375 -1.6875 "/></g></g></g><g fill="#d9d9d9" fill-opacity="1"><g transform="translate(104.600034, 190.636394)"><g><path d="M 2.078125 0.0625 C 1.640625 0.0195312 1.125 0 0.53125 0 L -0.078125 0 L 3.28125 -9.421875 C 3.425781 -9.847656 3.5 -10.09375 3.5 -10.15625 C 3.5 -10.226562 3.5 -10.269531 3.5 -10.28125 L 3.5 -10.296875 C 3.832031 -10.285156 4.1875 -10.28125 4.5625 -10.28125 C 4.875 -10.28125 5.25 -10.285156 5.6875 -10.296875 L 5.6875 -10.28125 C 5.675781 -10.257812 5.671875 -10.226562 5.671875 -10.1875 C 5.671875 -10.09375 5.75 -9.832031 5.90625 -9.40625 L 9.34375 0.015625 C 9.238281 0.015625 9.113281 0.015625 8.96875 0.015625 C 8.96875 0.015625 8.835938 0.0078125 8.578125 0 C 8.441406 0 8.320312 0 8.21875 0 L 7.03125 0 L 6.296875 -2.21875 L 2.8125 -2.21875 Z M 5.703125 -4.078125 L 4.53125 -7.671875 L 3.390625 -4.078125 Z M 5.703125 -4.078125 "/></g></g></g><g fill="#d9d9d9" fill-opacity="1"><g transform="translate(118.540958, 190.636394)"><g><path d="M 5.03125 0.046875 C 4.789062 0.015625 4.15625 0 3.125 0 L 2.875 0 L 2.875 -8.546875 L 1.359375 -8.546875 C 0.898438 -8.546875 0.628906 -8.519531 0.546875 -8.46875 C 0.460938 -8.425781 0.398438 -8.390625 0.359375 -8.359375 L 0.328125 -8.359375 L 0.328125 -10.34375 L 0.359375 -10.359375 C 0.523438 -10.304688 0.984375 -10.28125 1.734375 -10.28125 L 6.578125 -10.28125 C 7.023438 -10.28125 7.289062 -10.300781 7.375 -10.34375 C 7.457031 -10.394531 7.523438 -10.4375 7.578125 -10.46875 L 7.59375 -10.46875 L 7.59375 -8.484375 L 7.578125 -8.46875 C 7.398438 -8.519531 6.941406 -8.546875 6.203125 -8.546875 L 5.03125 -8.546875 Z M 5.03125 0.046875 "/></g></g></g><g fill="#d9d9d9" fill-opacity="1"><g transform="translate(131.159965, 190.636394)"><g><path d="M 2.078125 0.0625 C 1.640625 0.0195312 1.125 0 0.53125 0 L -0.078125 0 L 3.28125 -9.421875 C 3.425781 -9.847656 3.5 -10.09375 3.5 -10.15625 C 3.5 -10.226562 3.5 -10.269531 3.5 -10.28125 L 3.5 -10.296875 C 3.832031 -10.285156 4.1875 -10.28125 4.5625 -10.28125 C 4.875 -10.28125 5.25 -10.285156 5.6875 -10.296875 L 5.6875 -10.28125 C 5.675781 -10.257812 5.671875 -10.226562 5.671875 -10.1875 C 5.671875 -10.09375 5.75 -9.832031 5.90625 -9.40625 L 9.34375 0.015625 C 9.238281 0.015625 9.113281 0.015625 8.96875 0.015625 C 8.96875 0.015625 8.835938 0.0078125 8.578125 0 C 8.441406 0 8.320312 0 8.21875 0 L 7.03125 0 L 6.296875 -2.21875 L 2.8125 -2.21875 Z M 5.703125 -4.078125 L 4.53125 -7.671875 L 3.390625 -4.078125 Z M 5.703125 -4.078125 "/></g></g></g><g fill="#d9d9d9" fill-opacity="1"><g transform="translate(145.100888, 190.636394)"><g/></g></g><g fill="#d9d9d9" fill-opacity="1"><g transform="translate(155.03742, 190.636394)"><g><path d="M 6.5 -1.859375 C 6.820312 -1.859375 7.046875 -1.890625 7.171875 -1.953125 L 7.1875 -1.9375 L 7.125 0 L 1.328125 0 L 1.328125 -10.328125 C 1.460938 -10.316406 1.617188 -10.3125 1.796875 -10.3125 L 2.328125 -10.296875 C 2.691406 -10.285156 3.085938 -10.28125 3.515625 -10.28125 C 4.691406 -10.28125 5.859375 -10.300781 7.015625 -10.34375 C 6.953125 -9.882812 6.921875 -9.28125 6.921875 -8.53125 C 6.921875 -8.445312 6.925781 -8.382812 6.9375 -8.34375 L 6.921875 -8.3125 C 6.648438 -8.394531 6.269531 -8.4375 5.78125 -8.4375 L 3.34375 -8.4375 L 3.34375 -6.46875 L 5.171875 -6.46875 C 5.742188 -6.46875 6.085938 -6.476562 6.203125 -6.5 L 6.21875 -4.59375 C 5.96875 -4.625 5.648438 -4.640625 5.265625 -4.640625 L 3.34375 -4.640625 L 3.34375 -1.859375 Z M 6.5 -1.859375 "/></g></g></g><g fill="#d9d9d9" fill-opacity="1"><g transform="translate(167.656424, 190.636394)"><g><path d="M 1.40625 0 C 1.425781 -0.175781 1.4375 -0.367188 1.4375 -0.578125 L 1.4375 -10.28125 L 2.984375 -10.28125 L 7.09375 -3.828125 L 7.09375 -9.75 C 7.09375 -10.03125 7.066406 -10.207031 7.015625 -10.28125 L 9.09375 -10.28125 C 9.070312 -10.070312 9.0625 -9.84375 9.0625 -9.59375 L 9.0625 0 L 7.453125 0 L 3.421875 -6.1875 L 3.421875 0 Z M 1.40625 0 "/></g></g></g><g fill="#d9d9d9" fill-opacity="1"><g transform="translate(182.849686, 190.636394)"><g><path d="M 5.03125 0.046875 C 4.789062 0.015625 4.15625 0 3.125 0 L 2.875 0 L 2.875 -8.546875 L 1.359375 -8.546875 C 0.898438 -8.546875 0.628906 -8.519531 0.546875 -8.46875 C 0.460938 -8.425781 0.398438 -8.390625 0.359375 -8.359375 L 0.328125 -8.359375 L 0.328125 -10.34375 L 0.359375 -10.359375 C 0.523438 -10.304688 0.984375 -10.28125 1.734375 -10.28125 L 6.578125 -10.28125 C 7.023438 -10.28125 7.289062 -10.300781 7.375 -10.34375 C 7.457031 -10.394531 7.523438 -10.4375 7.578125 -10.46875 L 7.59375 -10.46875 L 7.59375 -8.484375 L 7.578125 -8.46875 C 7.398438 -8.519531 6.941406 -8.546875 6.203125 -8.546875 L 5.03125 -8.546875 Z M 5.03125 0.046875 "/></g></g></g><g fill="#d9d9d9" fill-opacity="1"><g transform="translate(195.468696, 190.636394)"><g><path d="M 3.421875 0.046875 C 2.921875 0.015625 2.332031 0 1.65625 0 L 1.40625 0 L 1.40625 -10.3125 C 1.726562 -10.289062 1.957031 -10.28125 2.09375 -10.28125 L 2.40625 -10.28125 C 2.8125 -10.28125 3.148438 -10.300781 3.421875 -10.34375 L 3.421875 -6.21875 L 7.046875 -6.21875 L 7.046875 -10.3125 C 7.472656 -10.289062 7.890625 -10.28125 8.296875 -10.28125 C 8.703125 -10.28125 8.957031 -10.300781 9.0625 -10.34375 L 9.0625 0.046875 C 8.8125 0.015625 8.320312 0 7.59375 0 L 7.046875 0 L 7.046875 -4.359375 L 3.421875 -4.359375 Z M 3.421875 0.046875 "/></g></g></g><g fill="#d9d9d9" fill-opacity="1"><g transform="translate(210.700609, 190.636394)"><g><path d="M 7.1875 -10.3125 C 7.507812 -10.289062 7.773438 -10.28125 7.984375 -10.28125 L 8.625 -10.28125 C 8.84375 -10.28125 9.070312 -10.300781 9.3125 -10.34375 L 9.3125 -3.953125 C 9.3125 -2.679688 8.925781 -1.660156 8.15625 -0.890625 C 7.425781 -0.171875 6.515625 0.1875 5.421875 0.1875 C 4.210938 0.1875 3.238281 -0.117188 2.5 -0.734375 C 1.675781 -1.441406 1.265625 -2.453125 1.265625 -3.765625 L 1.265625 -10.3125 C 1.691406 -10.289062 2.09375 -10.28125 2.46875 -10.28125 C 2.84375 -10.28125 3.15625 -10.300781 3.40625 -10.34375 L 3.40625 -3.671875 C 3.40625 -3.023438 3.601562 -2.519531 4 -2.15625 C 4.375 -1.820312 4.835938 -1.65625 5.390625 -1.65625 C 6.210938 -1.65625 6.765625 -2.078125 7.046875 -2.921875 C 7.140625 -3.234375 7.1875 -3.613281 7.1875 -4.0625 Z M 7.1875 -10.3125 "/></g></g></g><g fill="#d9d9d9" fill-opacity="1"><g transform="translate(225.963445, 190.636394)"><g><path d="M 7.53125 -9.703125 L 7.390625 -7.4375 L 7.328125 -7.421875 C 6.953125 -7.992188 6.304688 -8.363281 5.390625 -8.53125 C 5.097656 -8.59375 4.816406 -8.625 4.546875 -8.625 C 4.285156 -8.625 4.0625 -8.597656 3.875 -8.546875 C 3.6875 -8.503906 3.523438 -8.4375 3.390625 -8.34375 C 3.109375 -8.15625 2.96875 -7.914062 2.96875 -7.625 C 2.96875 -7.226562 3.09375 -6.929688 3.34375 -6.734375 C 3.644531 -6.503906 4.15625 -6.335938 4.875 -6.234375 C 5.59375 -6.140625 6.164062 -6.007812 6.59375 -5.84375 C 7.03125 -5.6875 7.390625 -5.476562 7.671875 -5.21875 C 8.191406 -4.75 8.453125 -4.082031 8.453125 -3.21875 C 8.453125 -2.082031 8.023438 -1.207031 7.171875 -0.59375 C 6.441406 -0.0703125 5.519531 0.1875 4.40625 0.1875 C 3.507812 0.1875 2.625 0.0195312 1.75 -0.3125 C 1.457031 -0.425781 1.203125 -0.5625 0.984375 -0.71875 L 1.078125 -3.296875 L 1.109375 -3.3125 C 1.742188 -2.207031 2.789062 -1.65625 4.25 -1.65625 C 5.28125 -1.65625 5.96875 -1.90625 6.3125 -2.40625 C 6.414062 -2.582031 6.46875 -2.773438 6.46875 -2.984375 C 6.46875 -3.191406 6.4375 -3.363281 6.375 -3.5 C 6.3125 -3.632812 6.203125 -3.75 6.046875 -3.84375 C 5.742188 -4.039062 5.238281 -4.171875 4.53125 -4.234375 C 3.832031 -4.304688 3.257812 -4.4375 2.8125 -4.625 C 2.363281 -4.8125 2.003906 -5.039062 1.734375 -5.3125 C 1.242188 -5.800781 1 -6.488281 1 -7.375 C 1 -8.289062 1.320312 -9.035156 1.96875 -9.609375 C 2.625 -10.179688 3.503906 -10.46875 4.609375 -10.46875 C 5.722656 -10.46875 6.695312 -10.210938 7.53125 -9.703125 Z M 7.53125 -9.703125 "/></g></g></g><g fill="#d9d9d9" fill-opacity="1"><g transform="translate(239.873452, 190.636394)"><g><path d="M 1.5625 -10.3125 C 2.082031 -10.289062 2.394531 -10.28125 2.5 -10.28125 L 3.0625 -10.28125 C 3.332031 -10.28125 3.550781 -10.300781 3.71875 -10.34375 L 3.703125 0 L 1.5625 0 Z M 1.5625 -10.3125 "/></g></g></g><g fill="#d9d9d9" fill-opacity="1"><g transform="translate(249.848636, 190.636394)"><g><path d="M 2.078125 0.0625 C 1.640625 0.0195312 1.125 0 0.53125 0 L -0.078125 0 L 3.28125 -9.421875 C 3.425781 -9.847656 3.5 -10.09375 3.5 -10.15625 C 3.5 -10.226562 3.5 -10.269531 3.5 -10.28125 L 3.5 -10.296875 C 3.832031 -10.285156 4.1875 -10.28125 4.5625 -10.28125 C 4.875 -10.28125 5.25 -10.285156 5.6875 -10.296875 L 5.6875 -10.28125 C 5.675781 -10.257812 5.671875 -10.226562 5.671875 -10.1875 C 5.671875 -10.09375 5.75 -9.832031 5.90625 -9.40625 L 9.34375 0.015625 C 9.238281 0.015625 9.113281 0.015625 8.96875 0.015625 C 8.96875 0.015625 8.835938 0.0078125 8.578125 0 C 8.441406 0 8.320312 0 8.21875 0 L 7.03125 0 L 6.296875 -2.21875 L 2.8125 -2.21875 Z M 5.703125 -4.078125 L 4.53125 -7.671875 L 3.390625 -4.078125 Z M 5.703125 -4.078125 "/></g></g></g><g fill="#d9d9d9" fill-opacity="1"><g transform="translate(263.789565, 190.636394)"><g><path d="M 7.53125 -9.703125 L 7.390625 -7.4375 L 7.328125 -7.421875 C 6.953125 -7.992188 6.304688 -8.363281 5.390625 -8.53125 C 5.097656 -8.59375 4.816406 -8.625 4.546875 -8.625 C 4.285156 -8.625 4.0625 -8.597656 3.875 -8.546875 C 3.6875 -8.503906 3.523438 -8.4375 3.390625 -8.34375 C 3.109375 -8.15625 2.96875 -7.914062 2.96875 -7.625 C 2.96875 -7.226562 3.09375 -6.929688 3.34375 -6.734375 C 3.644531 -6.503906 4.15625 -6.335938 4.875 -6.234375 C 5.59375 -6.140625 6.164062 -6.007812 6.59375 -5.84375 C 7.03125 -5.6875 7.390625 -5.476562 7.671875 -5.21875 C 8.191406 -4.75 8.453125 -4.082031 8.453125 -3.21875 C 8.453125 -2.082031 8.023438 -1.207031 7.171875 -0.59375 C 6.441406 -0.0703125 5.519531 0.1875 4.40625 0.1875 C 3.507812 0.1875 2.625 0.0195312 1.75 -0.3125 C 1.457031 -0.425781 1.203125 -0.5625 0.984375 -0.71875 L 1.078125 -3.296875 L 1.109375 -3.3125 C 1.742188 -2.207031 2.789062 -1.65625 4.25 -1.65625 C 5.28125 -1.65625 5.96875 -1.90625 6.3125 -2.40625 C 6.414062 -2.582031 6.46875 -2.773438 6.46875 -2.984375 C 6.46875 -3.191406 6.4375 -3.363281 6.375 -3.5 C 6.3125 -3.632812 6.203125 -3.75 6.046875 -3.84375 C 5.742188 -4.039062 5.238281 -4.171875 4.53125 -4.234375 C 3.832031 -4.304688 3.257812 -4.4375 2.8125 -4.625 C 2.363281 -4.8125 2.003906 -5.039062 1.734375 -5.3125 C 1.242188 -5.800781 1 -6.488281 1 -7.375 C 1 -8.289062 1.320312 -9.035156 1.96875 -9.609375 C 2.625 -10.179688 3.503906 -10.46875 4.609375 -10.46875 C 5.722656 -10.46875 6.695312 -10.210938 7.53125 -9.703125 Z M 7.53125 -9.703125 "/></g></g></g><g fill="#d9d9d9" fill-opacity="1"><g transform="translate(277.699572, 190.636394)"><g><path d="M 5.03125 0.046875 C 4.789062 0.015625 4.15625 0 3.125 0 L 2.875 0 L 2.875 -8.546875 L 1.359375 -8.546875 C 0.898438 -8.546875 0.628906 -8.519531 0.546875 -8.46875 C 0.460938 -8.425781 0.398438 -8.390625 0.359375 -8.359375 L 0.328125 -8.359375 L 0.328125 -10.34375 L 0.359375 -10.359375 C 0.523438 -10.304688 0.984375 -10.28125 1.734375 -10.28125 L 6.578125 -10.28125 C 7.023438 -10.28125 7.289062 -10.300781 7.375 -10.34375 C 7.457031 -10.394531 7.523438 -10.4375 7.578125 -10.46875 L 7.59375 -10.46875 L 7.59375 -8.484375 L 7.578125 -8.46875 C 7.398438 -8.519531 6.941406 -8.546875 6.203125 -8.546875 L 5.03125 -8.546875 Z M 5.03125 0.046875 "/></g></g></g></svg>